<?xml version="1.0" encoding="utf-8"?>
<!-- Generator: Adobe Illustrator 16.0.0, SVG Export Plug-In . SVG Version: 6.00 Build 0)  -->
<!DOCTYPE svg PUBLIC "-//W3C//DTD SVG 1.1//EN" "http://www.w3.org/Graphics/SVG/1.1/DTD/svg11.dtd">
<svg version="1.1" id="Layer_1" xmlns="http://www.w3.org/2000/svg" xmlns:xlink="http://www.w3.org/1999/xlink" x="0px" y="0px"
	 width="1024px" height="1024px" viewBox="0 0 1024 1024" enable-background="new 0 0 1024 1024" xml:space="preserve">
<g>
	<path fill="#B31D70" d="M512.004,7.312C233.27,7.312,7.308,233.27,7.308,512.004c0,278.721,225.962,504.685,504.696,504.685
		c278.717,0,504.688-225.964,504.688-504.685C1016.692,233.263,790.739,7.312,512.004,7.312z M815.006,788.235h-18.74
		c-5.85,0-10.779-5.672-14.342-10.78l-156.67-211.959v222.739h-18.239c-5.85,0-13.052-5.672-16.63-10.78l-163.136-217.55v228.33h-33
		V514.57L237.081,305.755c0.773,7.639,0.418,14.881,0.418,21.752v460.728H204.5V243.74h23.615c3.568,0,6.026-0.394,8.072,0.488
		c2.022,0.89,2.504,2.093,4.802,5.155L394.25,457.15V243.74h23.123c3.569,0,5.833-0.394,7.862,0.488
		c2.031,0.89,5.172,2.093,7.46,5.155l159.56,212.872V243.74h32.999v264.478l156.978,208.864c-0.759-7.631-0.226-15.003-0.226-22.124
		V243.74h33V788.235z"/>
	<path fill="#B31D70" d="M592.255,519.657L429.053,305.755c0.773,7.639-1.804,14.881-1.804,21.752v175.082l163.204,214.492
		c-0.759-7.631,1.802-15.003,1.802-22.124V519.657z"/>
</g>
</svg>
