<?xml version="1.0" encoding="utf-8"?>
<!-- Generator: Adobe Illustrator 16.0.0, SVG Export Plug-In . SVG Version: 6.00 Build 0)  -->
<!DOCTYPE svg PUBLIC "-//W3C//DTD SVG 1.1//EN" "http://www.w3.org/Graphics/SVG/1.1/DTD/svg11.dtd">
<svg version="1.1" id="Layer_1" xmlns="http://www.w3.org/2000/svg" xmlns:xlink="http://www.w3.org/1999/xlink" x="0px" y="0px"
	 width="1024px" height="1024px" viewBox="0 0 1024 1024" enable-background="new 0 0 1024 1024" xml:space="preserve">
<g>
	<g>
		<path fill="#B31D70" d="M281.532,473.582c0.53,0.071,1.011,0.204,1.434,0.399c0.423,0.194,0.831,0.47,1.222,0.825
			c0.388,0.354,0.831,0.831,1.327,1.432l36.754,46.476c-0.143-1.486-0.249-2.93-0.318-4.329c-0.071-1.396-0.105-2.717-0.105-3.956
			v-40.95h15.828v77.386h-9.349c-1.381,0-2.549-0.213-3.504-0.64c-0.957-0.424-1.879-1.202-2.763-2.336l-36.488-46.103
			c0.105,1.347,0.193,2.664,0.266,3.958c0.071,1.293,0.105,2.504,0.105,3.637v41.48h-15.828v-77.384h9.454
			C280.346,473.476,281.002,473.512,281.532,473.582z"/>
		<path fill="#B31D70" d="M356.527,473.582c0.53,0.071,1.009,0.204,1.436,0.399c0.423,0.194,0.83,0.47,1.219,0.825
			c0.391,0.354,0.833,0.831,1.327,1.432l36.755,46.476c-0.141-1.486-0.248-2.93-0.318-4.329c-0.071-1.396-0.107-2.717-0.107-3.956
			v-40.95h15.828v77.386h-9.347c-1.381,0-2.549-0.213-3.506-0.64c-0.955-0.424-1.877-1.202-2.761-2.336l-36.489-46.103
			c0.106,1.347,0.195,2.664,0.266,3.958c0.07,1.293,0.107,2.504,0.107,3.637v41.48h-15.828v-77.384h9.454
			C355.341,473.476,355.996,473.512,356.527,473.582z"/>
		<path fill="#B31D70" d="M430.327,475.096c0.443,0.231,0.947,0.699,1.514,1.407l44.084,57.361
			c-0.106-0.921-0.178-1.814-0.213-2.683c-0.036-0.865-0.052-1.709-0.052-2.521v-53.909h9.028v76.11h-5.204
			c-0.816,0-1.498-0.143-2.044-0.427c-0.552-0.284-1.089-0.76-1.621-1.434l-44.032-57.308c0.07,0.884,0.124,1.751,0.161,2.603
			c0.034,0.85,0.053,1.628,0.053,2.338v54.228h-9.03v-76.11h5.311C429.203,474.751,429.883,474.866,430.327,475.096z"/>
		<path fill="#B31D70" d="M535.996,550.861H531.8c-0.921,0-1.666-0.143-2.231-0.427s-0.939-0.884-1.115-1.808l-1.063-4.991
			c-1.415,1.273-2.797,2.417-4.144,3.425c-1.345,1.01-2.763,1.86-4.246,2.549c-1.49,0.692-3.075,1.215-4.753,1.567
			c-1.685,0.355-3.553,0.531-5.606,0.531c-2.09,0-4.045-0.294-5.868-0.878c-1.825-0.587-3.409-1.468-4.755-2.639
			c-1.346-1.175-2.417-2.655-3.212-4.45c-0.795-1.796-1.194-3.919-1.194-6.369c0-2.133,0.584-4.185,1.754-6.156
			c1.167-1.972,3.053-3.724,5.655-5.251c2.604-1.526,6.011-2.777,10.224-3.758c4.214-0.977,9.365-1.465,15.457-1.465v-4.221
			c0-4.203-0.894-7.385-2.683-9.538c-1.786-2.156-4.435-3.234-7.939-3.234c-2.302,0-4.241,0.292-5.815,0.876
			c-1.577,0.586-2.941,1.241-4.089,1.966c-1.153,0.726-2.143,1.381-2.976,1.965c-0.832,0.584-1.655,0.877-2.469,0.877
			c-0.638,0-1.194-0.169-1.675-0.506c-0.478-0.335-0.856-0.751-1.142-1.248l-1.7-3.027c2.975-2.868,6.178-5.011,9.613-6.427
			c3.433-1.417,7.242-2.124,11.418-2.124c3.01,0,5.687,0.496,8.022,1.486c2.337,0.99,4.302,2.372,5.894,4.143
			c1.595,1.771,2.8,3.912,3.612,6.428c0.813,2.514,1.221,5.275,1.221,8.283v34.421H535.996z M511.456,545.073
			c1.663,0,3.187-0.17,4.567-0.507c1.382-0.334,2.683-0.813,3.903-1.431c1.224-0.622,2.389-1.372,3.505-2.26
			c1.115-0.884,2.206-1.895,3.266-3.028v-11.101c-4.354,0-8.053,0.278-11.1,0.828c-3.047,0.554-5.524,1.276-7.438,2.163
			c-1.911,0.891-3.302,1.941-4.17,3.152c-0.868,1.215-1.301,2.565-1.301,4.061c0,1.422,0.23,2.652,0.69,3.688
			c0.46,1.032,1.08,1.879,1.859,2.537s1.7,1.14,2.763,1.443C509.066,544.922,510.215,545.073,511.456,545.073z"/>
		<path fill="#B31D70" d="M536.525,497.059h7.753c0.745,0,1.363,0.194,1.86,0.585c0.495,0.39,0.851,0.851,1.063,1.38l13.65,34.631
			c0.494,1.273,0.884,2.546,1.168,3.822c0.281,1.276,0.547,2.531,0.797,3.771c0.281-1.239,0.581-2.497,0.902-3.771
			c0.318-1.276,0.724-2.549,1.221-3.822l13.808-34.631c0.214-0.563,0.56-1.035,1.039-1.405c0.476-0.373,1.069-0.56,1.78-0.56h7.383
			l-21.936,53.803h-8.551L536.525,497.059z"/>
		<path fill="#B31D70" d="M605.041,480.168c0,0.921-0.188,1.78-0.56,2.576c-0.37,0.796-0.868,1.506-1.486,2.124
			c-0.621,0.621-1.338,1.108-2.15,1.462c-0.816,0.354-1.682,0.531-2.605,0.531c-0.921,0-1.78-0.178-2.574-0.531
			c-0.797-0.354-1.508-0.841-2.123-1.462c-0.621-0.618-1.109-1.327-1.462-2.124c-0.355-0.796-0.531-1.655-0.531-2.576
			s0.176-1.797,0.531-2.63c0.353-0.83,0.841-1.556,1.462-2.177c0.618-0.618,1.326-1.106,2.123-1.461
			c0.794-0.352,1.653-0.529,2.574-0.529s1.789,0.178,2.605,0.529c0.815,0.354,1.529,0.843,2.15,1.461
			c0.618,0.621,1.116,1.347,1.486,2.177C604.855,478.371,605.041,479.247,605.041,480.168z M602.915,497.059v53.803h-9.453v-53.803
			H602.915z"/>
		<path fill="#B31D70" d="M632.394,496.156c2.337,0,4.524,0.256,6.558,0.77c2.037,0.515,3.889,1.266,5.554,2.259h14.605v3.505
			c0,1.168-0.745,1.911-2.231,2.23l-6.106,0.849c1.202,2.303,1.805,4.87,1.805,7.702c0,2.621-0.504,5.004-1.515,7.143
			c-1.007,2.142-2.404,3.974-4.193,5.497s-3.915,2.692-6.372,3.508c-2.463,0.813-5.164,1.221-8.1,1.221
			c-2.516,0-4.887-0.3-7.117-0.905c-1.135,0.732-1.99,1.521-2.577,2.36c-0.581,0.844-0.875,1.666-0.875,2.473
			c0,1.319,0.51,2.314,1.539,2.991c1.025,0.677,2.392,1.165,4.088,1.456c1.703,0.297,3.632,0.438,5.792,0.438s4.363,0,6.613,0
			c2.247,0,4.45,0.198,6.613,0.594c2.157,0.396,4.089,1.038,5.788,1.935c1.7,0.899,3.063,2.135,4.089,3.711
			c1.025,1.576,1.542,3.619,1.542,6.129c0,2.33-0.575,4.589-1.728,6.773s-2.806,4.132-4.966,5.838
			c-2.16,1.699-4.8,3.063-7.915,4.085c-3.115,1.021-6.638,1.533-10.569,1.533c-3.931,0-7.373-0.393-10.33-1.171
			c-2.955-0.782-5.408-1.827-7.355-3.137c-1.947-1.311-3.405-2.828-4.382-4.546c-0.974-1.722-1.459-3.521-1.459-5.399
			c0-2.657,0.841-4.916,2.521-6.776c1.685-1.861,3.993-3.344,6.932-4.441c-1.523-0.704-2.734-1.65-3.637-2.834
			c-0.902-1.187-1.354-2.769-1.354-4.746c0-0.779,0.142-1.583,0.426-2.414c0.281-0.831,0.717-1.653,1.302-2.466
			c0.584-0.813,1.301-1.592,2.147-2.333c0.85-0.742,1.842-1.397,2.976-1.963c-2.657-1.486-4.737-3.461-6.239-5.921
			c-1.505-2.463-2.259-5.341-2.259-8.632c0-2.618,0.504-5.001,1.514-7.145c1.011-2.143,2.417-3.965,4.222-5.472
			c1.808-1.505,3.959-2.665,6.453-3.479C626.683,496.563,629.418,496.156,632.394,496.156z M649.178,553.59
			c0-1.372-0.371-2.473-1.115-3.304c-0.745-0.831-1.753-1.471-3.029-1.922c-1.273-0.451-2.744-0.785-4.406-1.001
			c-1.666-0.22-3.418-0.325-5.26-0.325s-3.718,0-5.628,0c-1.913,0-3.739-0.241-5.47-0.72c-2.021,0.958-3.659,2.129-4.914,3.511
			c-1.258,1.381-1.885,3.031-1.885,4.947c0,1.205,0.309,2.33,0.93,3.378c0.618,1.045,1.564,1.95,2.841,2.714
			c1.276,0.76,2.877,1.362,4.809,1.808c1.928,0.441,4.202,0.664,6.823,0.664c2.55,0,4.833-0.231,6.852-0.704
			c2.018-0.47,3.724-1.138,5.123-2.003c1.4-0.868,2.473-1.897,3.215-3.087C648.807,556.353,649.178,555.036,649.178,553.59z
			 M632.394,524.571c1.913,0,3.604-0.266,5.071-0.797c1.472-0.532,2.701-1.273,3.693-2.231c0.989-0.955,1.733-2.099,2.231-3.424
			c0.494-1.329,0.741-2.788,0.741-4.383c0-3.294-1.001-5.913-3-7.861c-2-1.947-4.911-2.922-8.733-2.922
			c-3.792,0-6.685,0.974-8.685,2.922c-2.002,1.948-3,4.567-3,7.861c0,1.592,0.256,3.054,0.77,4.383
			c0.51,1.325,1.267,2.469,2.259,3.424c0.988,0.958,2.209,1.699,3.662,2.231C628.853,524.306,630.519,524.571,632.394,524.571z"/>
		<path fill="#B31D70" d="M702.765,550.861h-4.194c-0.921,0-1.665-0.143-2.23-0.427s-0.937-0.884-1.116-1.808l-1.06-4.991
			c-1.419,1.273-2.8,2.417-4.145,3.425c-1.348,1.01-2.76,1.86-4.249,2.549c-1.486,0.692-3.071,1.215-4.756,1.567
			c-1.682,0.355-3.548,0.531-5.603,0.531c-2.086,0-4.046-0.294-5.869-0.878c-1.823-0.587-3.405-1.468-4.753-2.639
			c-1.348-1.175-2.413-2.655-3.211-4.45c-0.8-1.796-1.199-3.919-1.199-6.369c0-2.133,0.588-4.185,1.756-6.156
			s3.053-3.724,5.655-5.251c2.602-1.526,6.011-2.777,10.223-3.758c4.215-0.977,9.367-1.465,15.458-1.465v-4.221
			c0-4.203-0.894-7.385-2.683-9.538c-1.786-2.156-4.435-3.234-7.942-3.234c-2.302,0-4.239,0.292-5.815,0.876
			c-1.573,0.586-2.939,1.241-4.089,1.966c-1.152,0.726-2.142,1.381-2.973,1.965s-1.656,0.877-2.473,0.877
			c-0.637,0-1.195-0.169-1.672-0.506c-0.479-0.335-0.859-0.751-1.144-1.248l-1.699-3.027c2.976-2.868,6.178-5.011,9.614-6.427
			c3.433-1.417,7.24-2.124,11.419-2.124c3.01,0,5.683,0.496,8.02,1.486c2.336,0.99,4.301,2.372,5.896,4.143
			c1.592,1.771,2.797,3.912,3.613,6.428c0.813,2.514,1.218,5.275,1.218,8.283v34.421H702.765z M678.227,545.073
			c1.666,0,3.189-0.17,4.568-0.507c1.381-0.334,2.682-0.813,3.906-1.431c1.221-0.622,2.389-1.372,3.507-2.26
			c1.112-0.884,2.2-1.895,3.264-3.028v-11.101c-4.354,0-8.057,0.278-11.101,0.828c-3.047,0.554-5.525,1.276-7.436,2.163
			c-1.913,0.891-3.304,1.941-4.172,3.152c-0.865,1.215-1.301,2.565-1.301,4.061c0,1.422,0.231,2.652,0.692,3.688
			c0.46,1.032,1.081,1.879,1.86,2.537c0.778,0.658,1.699,1.14,2.763,1.443C675.838,544.922,676.987,545.073,678.227,545.073z"/>
		<path fill="#B31D70" d="M728.099,551.711c-4.249,0-7.516-1.187-9.799-3.557c-2.284-2.374-3.425-5.792-3.425-10.254v-32.929h-6.48
			c-0.568,0-1.044-0.167-1.434-0.504c-0.39-0.336-0.584-0.857-0.584-1.567v-3.77l8.816-1.116l2.179-16.624
			c0.068-0.532,0.297-0.965,0.689-1.303c0.39-0.336,0.887-0.506,1.486-0.506h4.781v18.536h15.402v6.852h-15.402v32.294
			c0,2.266,0.55,3.946,1.646,5.043c1.098,1.101,2.513,1.647,4.25,1.647c0.991,0,1.851-0.133,2.577-0.398
			c0.723-0.263,1.351-0.557,1.885-0.875c0.532-0.318,0.979-0.611,1.354-0.877c0.371-0.267,0.698-0.399,0.983-0.399
			c0.494,0,0.936,0.304,1.325,0.906l2.763,4.515c-1.628,1.523-3.594,2.717-5.896,3.585
			C732.914,551.275,730.544,551.711,728.099,551.711z"/>
		<path fill="#B31D70" d="M758.743,480.168c0,0.921-0.183,1.78-0.557,2.576c-0.371,0.796-0.868,1.506-1.486,2.124
			c-0.621,0.621-1.338,1.108-2.15,1.462c-0.816,0.354-1.682,0.531-2.605,0.531c-0.921,0-1.777-0.178-2.574-0.531
			c-0.798-0.354-1.505-0.841-2.123-1.462c-0.621-0.618-1.109-1.327-1.462-2.124c-0.355-0.798-0.531-1.655-0.531-2.576
			s0.176-1.797,0.531-2.63c0.353-0.83,0.841-1.556,1.462-2.177c0.618-0.618,1.325-1.106,2.123-1.461
			c0.797-0.352,1.653-0.529,2.574-0.529s1.789,0.178,2.605,0.529c0.815,0.354,1.529,0.843,2.15,1.461
			c0.618,0.621,1.115,1.347,1.486,2.177C758.558,478.371,758.743,479.247,758.743,480.168z M756.62,497.059v53.803h-9.457v-53.803
			H756.62z"/>
		<path fill="#B31D70" d="M789.761,496.207c3.928,0,7.481,0.656,10.649,1.966s5.859,3.169,8.075,5.576
			c2.21,2.407,3.909,5.32,5.099,8.736c1.184,3.418,1.777,7.231,1.777,11.446c0,4.249-0.594,8.075-1.777,11.472
			c-1.189,3.399-2.886,6.305-5.099,8.709c-2.213,2.41-4.904,4.258-8.075,5.55s-6.722,1.938-10.649,1.938
			c-3.931,0-7.481-0.646-10.649-1.938c-3.167-1.292-5.868-3.14-8.097-5.55c-2.231-2.404-3.949-5.31-5.151-8.709
			c-1.205-3.399-1.808-7.223-1.808-11.472c0-4.215,0.603-8.028,1.808-11.446c1.202-3.416,2.92-6.329,5.151-8.736
			c2.229-2.407,4.93-4.267,8.097-5.576C782.282,496.863,785.83,496.207,789.761,496.207z M789.761,544.223
			c5.313,0,9.277-1.779,11.898-5.34c2.62-3.557,3.931-8.523,3.931-14.898c0-6.406-1.311-11.4-3.931-14.976
			c-2.618-3.577-6.583-5.365-11.898-5.365c-2.691,0-5.028,0.461-7.009,1.382c-1.984,0.921-3.641,2.248-4.97,3.985
			c-1.325,1.734-2.317,3.867-2.973,6.397c-0.655,2.531-0.982,5.394-0.982,8.579c0,3.187,0.327,6.036,0.982,8.551
			c0.655,2.513,1.647,4.63,2.973,6.345c1.329,1.719,2.985,3.038,4.97,3.956C784.732,543.763,787.069,544.223,789.761,544.223z"/>
		<path fill="#B31D70" d="M821.733,550.861v-53.803h5.631c1.348,0,2.197,0.656,2.55,1.965l0.744,5.845
			c2.337-2.587,4.948-4.675,7.834-6.268c2.884-1.595,6.225-2.392,10.014-2.392c2.936,0,5.531,0.488,7.778,1.461
			c2.249,0.974,4.125,2.355,5.63,4.143c1.506,1.79,2.648,3.94,3.425,6.453c0.781,2.514,1.171,5.295,1.171,8.339v34.257h-9.453
			v-34.257c0-4.071-0.931-7.231-2.791-9.479s-4.7-3.373-8.523-3.373c-2.8,0-5.411,0.674-7.837,2.017
			c-2.423,1.348-4.663,3.169-6.718,5.472v39.624h-9.454V550.861z"/>
		<path fill="#B31D70" d="M876.974,550.861v-76.11h24.271c4.673,0,8.703,0.46,12.084,1.381c3.384,0.921,6.162,2.231,8.341,3.93
			c2.179,1.699,3.788,3.781,4.833,6.241c1.044,2.46,1.566,5.23,1.566,8.312c0,1.879-0.293,3.684-0.877,5.417
			c-0.585,1.736-1.472,3.347-2.658,4.835c-1.187,1.486-2.67,2.813-4.459,3.983c-1.79,1.168-3.885,2.123-6.295,2.869
			c5.56,1.098,9.753,3.097,12.587,6.002c2.833,2.901,4.249,6.728,4.249,11.471c0,3.221-0.594,6.162-1.777,8.817
			c-1.189,2.654-2.92,4.938-5.204,6.851c-2.283,1.91-5.083,3.391-8.394,4.435c-3.31,1.045-7.089,1.567-11.341,1.567H876.974z
			 M887.277,508.85h13.597c2.902,0,5.418-0.32,7.544-0.955c2.123-0.637,3.885-1.521,5.284-2.656
			c1.397-1.133,2.433-2.505,3.106-4.116s1.011-3.371,1.011-5.284c0-4.463-1.348-7.737-4.036-9.826
			c-2.692-2.089-6.87-3.135-12.535-3.135H887.28v25.973H887.277z M887.277,516.178v26.503h16.465c2.936,0,5.461-0.333,7.568-1.01
			c2.107-0.671,3.842-1.62,5.204-2.841c1.363-1.221,2.364-2.673,3.001-4.354c0.637-1.682,0.955-3.533,0.955-5.551
			c0-3.931-1.391-7.04-4.172-9.32c-2.778-2.284-6.981-3.428-12.612-3.428H887.277z"/>
		<path fill="#B31D70" d="M978.418,550.861h-4.197c-0.921,0-1.662-0.143-2.231-0.427c-0.565-0.284-0.936-0.884-1.115-1.808
			l-1.06-4.991c-1.419,1.273-2.8,2.417-4.145,3.425c-1.345,1.01-2.76,1.86-4.249,2.549c-1.486,0.692-3.072,1.215-4.753,1.567
			c-1.682,0.355-3.551,0.531-5.604,0.531c-2.089,0-4.048-0.294-5.868-0.878c-1.826-0.587-3.408-1.468-4.756-2.639
			c-1.345-1.175-2.414-2.655-3.211-4.45c-0.798-1.796-1.196-3.919-1.196-6.369c0-2.133,0.584-4.185,1.753-6.156
			c1.168-1.972,3.056-3.724,5.655-5.251c2.602-1.526,6.011-2.777,10.223-3.758c4.215-0.977,9.367-1.465,15.461-1.465v-4.221
			c0-4.203-0.896-7.385-2.686-9.538c-1.786-2.156-4.435-3.234-7.939-3.234c-2.302,0-4.239,0.292-5.818,0.876
			c-1.573,0.586-2.937,1.241-4.089,1.966c-1.149,0.726-2.142,1.381-2.973,1.965c-0.832,0.584-1.657,0.877-2.47,0.877
			c-0.64,0-1.196-0.169-1.675-0.506c-0.479-0.337-0.859-0.751-1.144-1.248l-1.699-3.027c2.976-2.868,6.181-5.011,9.613-6.427
			c3.434-1.417,7.241-2.124,11.419-2.124c3.011,0,5.684,0.496,8.02,1.486c2.337,0.99,4.302,2.372,5.896,4.143
			s2.797,3.912,3.613,6.428c0.813,2.514,1.22,5.275,1.22,8.283v34.421H978.418z M953.877,545.073c1.666,0,3.189-0.17,4.571-0.507
			c1.381-0.334,2.679-0.813,3.902-1.431c1.221-0.622,2.389-1.372,3.508-2.26c1.112-0.884,2.2-1.895,3.267-3.028v-11.101
			c-4.357,0-8.06,0.278-11.104,0.828c-3.047,0.554-5.525,1.276-7.436,2.163c-1.913,0.891-3.304,1.941-4.172,3.152
			c-0.865,1.215-1.301,2.565-1.301,4.061c0,1.422,0.231,2.652,0.691,3.688c0.461,1.032,1.082,1.879,1.861,2.537
			c0.778,0.658,1.699,1.14,2.763,1.443C951.488,544.922,952.638,545.073,953.877,545.073z"/>
		<path fill="#B31D70" d="M987.444,550.861v-53.803h5.418c1.025,0,1.736,0.194,2.126,0.585c0.39,0.39,0.655,1.062,0.797,2.019
			l0.637,8.392c1.839-3.753,4.116-6.683,6.823-8.789c2.708-2.105,5.888-3.161,9.534-3.161c1.486,0,2.831,0.167,4.036,0.504
			c1.202,0.338,2.317,0.807,3.347,1.409l-1.224,7.063c-0.247,0.886-0.794,1.329-1.645,1.329c-0.494,0-1.258-0.167-2.28-0.505
			c-1.029-0.336-2.466-0.504-4.305-0.504c-3.295,0-6.045,0.955-8.261,2.867c-2.213,1.912-4.063,4.694-5.551,8.338v34.26h-9.453
			V550.861z"/>
	</g>
	<g>
		<path fill="#B31D70" d="M123.688,392.15c-66.192,0-119.85,53.659-119.85,119.852c0,66.19,53.658,119.848,119.85,119.848
			c66.191,0,119.85-53.657,119.85-119.848C243.538,445.808,189.88,392.15,123.688,392.15z M195.165,576.932h-3.973
			c-1.389,0-3.212-1.017-4.058-2.226l-37.855-50.002v52.228h-3.03c-1.389,0-3.185-1.017-4.03-2.226l-38.826-51.33v53.556h-7.911
			v-64.32l-36.907-49.587c0.181,1.813,0.515,3.534,0.515,5.164v108.743h-7.911V448.769h5.096c0.844,0,1.429-0.331,1.915-0.12
			c0.482,0.211,0.473,0.378,1.017,1.104l36.276,49.22v-50.204h5.734c0.845,0,1.383-0.331,1.868-0.12
			c0.484,0.211,0.541,0.378,1.083,1.104l37.2,50.435v-51.419h7.912v62.332l37.653,49.604c-0.179-1.812,0.321-3.563,0.321-5.257
			V448.769h7.911V576.932z"/>
		<path fill="#B31D70" d="M141.368,513.82l-38.149-50.796c0.181,1.813,0.175,3.534,0.175,5.164v41.577l38.152,50.936
			c-0.182-1.812-0.178-3.563-0.178-5.257V513.82z"/>
	</g>
</g>
</svg>
