<?xml version="1.0" encoding="utf-8"?>
<!-- Generator: Adobe Illustrator 16.0.0, SVG Export Plug-In . SVG Version: 6.00 Build 0)  -->
<!DOCTYPE svg PUBLIC "-//W3C//DTD SVG 1.1//EN" "http://www.w3.org/Graphics/SVG/1.1/DTD/svg11.dtd">
<svg version="1.1" id="Layer_1" xmlns="http://www.w3.org/2000/svg" xmlns:xlink="http://www.w3.org/1999/xlink" x="0px" y="0px"
	 width="1024px" height="1024px" viewBox="0 0 1024 1024" enable-background="new 0 0 1024 1024" xml:space="preserve">
<g>
	<g>
		<path fill="#B31D70" d="M43.214,895.54c0.687,0.092,1.296,0.262,1.847,0.518c0.55,0.249,1.074,0.602,1.572,1.052
			c0.491,0.461,1.067,1.075,1.715,1.856l47.376,59.924c-0.177-1.918-0.314-3.779-0.406-5.592c-0.098-1.796-0.145-3.499-0.145-5.097
			v-52.793h20.41v99.77h-12.051c-1.782,0-3.27-0.274-4.521-0.825c-1.23-0.551-2.424-1.553-3.563-3.014l-47.042-59.44
			c0.138,1.735,0.262,3.438,0.341,5.103c0.111,1.663,0.144,3.224,0.144,4.69v53.486H28.482v-99.77h12.177
			C41.681,895.408,42.52,895.447,43.214,895.54z"/>
		<path fill="#B31D70" d="M139.904,895.54c0.688,0.092,1.296,0.262,1.846,0.518c0.538,0.249,1.075,0.602,1.572,1.052
			c0.492,0.461,1.081,1.075,1.717,1.856l47.375,59.924c-0.178-1.918-0.327-3.779-0.405-5.592c-0.098-1.796-0.145-3.499-0.145-5.097
			v-52.793h20.409v99.77h-12.052c-1.781,0-3.281-0.274-4.52-0.825c-1.23-0.551-2.423-1.553-3.563-3.014l-47.042-59.44
			c0.138,1.735,0.249,3.438,0.341,5.103c0.098,1.663,0.144,3.224,0.144,4.69v53.486h-20.409v-99.77h12.189
			C138.371,895.408,139.223,895.447,139.904,895.54z"/>
		<path fill="#B31D70" d="M235.048,897.492c0.577,0.296,1.232,0.903,1.953,1.819l56.84,73.949c-0.138-1.185-0.223-2.339-0.274-3.458
			c-0.04-1.126-0.065-2.207-0.065-3.254v-69.503h11.632v98.132h-6.707c-1.048,0-1.926-0.182-2.64-0.552
			c-0.7-0.365-1.402-0.981-2.097-1.853l-56.768-73.89c0.098,1.138,0.157,2.252,0.196,3.353c0.052,1.102,0.065,2.102,0.065,3.014
			v69.914H225.57v-98.118h6.826C233.594,897.046,234.472,897.203,235.048,897.492z"/>
		<path fill="#B31D70" d="M371.287,995.178h-5.409c-1.192,0-2.149-0.182-2.87-0.552c-0.746-0.365-1.225-1.139-1.447-2.33
			l-1.369-6.433c-1.833,1.644-3.615,3.118-5.351,4.415c-1.73,1.298-3.557,2.396-5.47,3.288c-1.912,0.891-3.955,1.56-6.13,2.018
			c-2.162,0.457-4.572,0.693-7.219,0.693c-2.698,0-5.228-0.386-7.571-1.14c-2.357-0.746-4.389-1.886-6.131-3.398
			c-1.729-1.514-3.118-3.421-4.14-5.73c-1.017-2.321-1.533-5.045-1.533-8.215c0-2.739,0.728-5.391,2.253-7.932
			c1.507-2.542,3.931-4.794,7.284-6.766c3.38-1.967,7.755-3.585,13.191-4.847c5.423-1.264,12.078-1.887,19.925-1.887v-5.45
			c0-5.417-1.152-9.518-3.458-12.295c-2.307-2.778-5.731-4.174-10.231-4.174c-2.967,0-5.469,0.383-7.507,1.129
			c-2.016,0.753-3.779,1.598-5.259,2.541c-1.5,0.931-2.777,1.768-3.838,2.527c-1.074,0.754-2.137,1.126-3.203,1.126
			c-0.806,0-1.533-0.208-2.142-0.646c-0.603-0.439-1.101-0.977-1.474-1.617l-2.195-3.905c3.832-3.694,7.972-6.459,12.406-8.279
			c4.428-1.826,9.326-2.744,14.725-2.744c3.878,0,7.323,0.636,10.335,1.927c3.007,1.277,5.555,3.043,7.599,5.337
			c2.058,2.285,3.615,5.044,4.645,8.28c1.048,3.249,1.584,6.811,1.584,10.689V995.178L371.287,995.178z M339.65,987.712
			c2.148,0,4.113-0.217,5.896-0.655c1.769-0.428,3.445-1.048,5.019-1.849c1.584-0.8,3.09-1.769,4.531-2.906
			c1.447-1.142,2.83-2.45,4.205-3.904V964.08c-5.619,0-10.388,0.352-14.305,1.072c-3.931,0.708-7.126,1.644-9.59,2.791
			c-2.475,1.146-4.257,2.503-5.371,4.061c-1.126,1.566-1.689,3.313-1.689,5.239c0,1.834,0.301,3.42,0.891,4.743
			c0.603,1.336,1.39,2.422,2.391,3.274c1.009,0.851,2.188,1.468,3.563,1.861C336.566,987.507,338.053,987.712,339.65,987.712z"/>
		<path fill="#B31D70" d="M371.969,925.813h10.008c0.943,0,1.756,0.243,2.378,0.747c0.643,0.498,1.087,1.094,1.375,1.781
			l17.594,44.645c0.642,1.644,1.14,3.287,1.507,4.926c0.373,1.651,0.707,3.261,1.034,4.867c0.367-1.606,0.747-3.216,1.153-4.867
			c0.426-1.639,0.943-3.282,1.572-4.926l17.809-44.645c0.275-0.734,0.722-1.337,1.323-1.813c0.629-0.486,1.389-0.715,2.306-0.715
			h9.511l-28.283,69.364h-11.017L371.969,925.813z"/>
		<path fill="#B31D70" d="M460.302,904.027c0,1.193-0.236,2.306-0.708,3.326c-0.484,1.03-1.113,1.947-1.925,2.74
			c-0.8,0.798-1.729,1.427-2.778,1.887c-1.028,0.459-2.154,0.692-3.353,0.692c-1.192,0-2.293-0.233-3.309-0.692
			c-1.021-0.453-1.952-1.089-2.751-1.887c-0.785-0.798-1.414-1.71-1.873-2.74c-0.458-1.021-0.682-2.133-0.682-3.326
			c0-1.184,0.217-2.312,0.682-3.391c0.459-1.063,1.088-1.999,1.873-2.805c0.799-0.8,1.729-1.429,2.751-1.873
			c1.016-0.459,2.116-0.695,3.309-0.695c1.198,0,2.324,0.236,3.353,0.695c1.049,0.444,1.979,1.087,2.778,1.873
			c0.812,0.806,1.447,1.742,1.925,2.805C460.065,901.716,460.302,902.844,460.302,904.027z M457.563,925.813v69.364h-12.183v-69.364
			H457.563z"/>
		<path fill="#B31D70" d="M495.579,924.642c3,0,5.83,0.333,8.45,0.988c2.64,0.669,5.004,1.639,7.165,2.915h18.83v4.514
			c0,1.506-0.954,2.467-2.88,2.882l-7.873,1.086c1.532,2.968,2.332,6.288,2.332,9.938c0,3.379-0.656,6.451-1.953,9.209
			c-1.316,2.764-3.111,5.128-5.43,7.094c-2.292,1.965-5.03,3.472-8.22,4.518c-3.171,1.042-6.636,1.571-10.428,1.571
			c-3.249,0-6.314-0.385-9.184-1.165c-1.467,0.943-2.567,1.96-3.327,3.048c-0.74,1.086-1.127,2.142-1.127,3.183
			c0,1.709,0.662,2.987,1.991,3.864c1.323,0.871,3.079,1.501,5.267,1.872c2.187,0.381,4.677,0.564,7.467,0.564
			c2.777,0,5.619,0,8.515,0c2.915,0,5.751,0.263,8.541,0.766c2.777,0.511,5.266,1.337,7.454,2.489
			c2.201,1.167,3.943,2.764,5.278,4.796c1.324,2.03,1.979,4.662,1.979,7.897c0,3.001-0.733,5.916-2.227,8.738
			c-1.48,2.816-3.603,5.319-6.393,7.526c-2.791,2.194-6.201,3.943-10.205,5.267c-4.008,1.315-8.561,1.971-13.623,1.971
			c-5.084,0-9.511-0.504-13.316-1.504c-3.812-1.011-6.982-2.36-9.484-4.051c-2.502-1.688-4.389-3.647-5.646-5.867
			c-1.265-2.214-1.886-4.535-1.886-6.964c0-3.424,1.087-6.334,3.248-8.73c2.155-2.396,5.149-4.31,8.929-5.727
			c-1.952-0.915-3.519-2.127-4.67-3.653c-1.187-1.525-1.775-3.576-1.775-6.131c0-0.994,0.196-2.038,0.563-3.104
			c0.374-1.074,0.924-2.135,1.677-3.185c0.76-1.047,1.677-2.055,2.777-3.012c1.087-0.949,2.364-1.795,3.839-2.521
			c-3.433-1.921-6.118-4.468-8.057-7.632c-1.939-3.169-2.908-6.885-2.908-11.128c0-3.373,0.642-6.445,1.938-9.216
			c1.303-2.758,3.131-5.108,5.45-7.054c2.324-1.941,5.115-3.441,8.318-4.481C488.217,925.173,491.728,924.642,495.579,924.642z
			 M517.207,998.688c0-1.769-0.479-3.185-1.429-4.259c-0.969-1.074-2.266-1.898-3.916-2.481c-1.638-0.577-3.529-1.001-5.672-1.289
			c-2.148-0.276-4.402-0.42-6.786-0.42c-2.377,0-4.801,0-7.257,0c-2.463,0-4.827-0.309-7.055-0.932
			c-2.607,1.239-4.709,2.752-6.334,4.521c-1.624,1.795-2.423,3.918-2.423,6.38c0,1.56,0.393,3.007,1.191,4.355
			c0.8,1.356,2.024,2.515,3.669,3.491c1.638,0.983,3.713,1.769,6.202,2.346c2.482,0.563,5.423,0.85,8.79,0.85
			c3.288,0,6.236-0.307,8.843-0.903c2.593-0.616,4.794-1.467,6.595-2.593c1.803-1.114,3.189-2.438,4.152-3.969
			C516.723,1002.258,517.207,1000.555,517.207,998.688z M495.579,961.281c2.464,0,4.638-0.347,6.537-1.029
			c1.887-0.686,3.491-1.648,4.756-2.875c1.27-1.231,2.227-2.704,2.876-4.422c0.641-1.701,0.955-3.587,0.955-5.644
			c0-4.252-1.277-7.625-3.865-10.141c-2.567-2.509-6.334-3.76-11.253-3.76c-4.893,0-8.632,1.257-11.213,3.76
			c-2.581,2.516-3.865,5.889-3.865,10.141c0,2.057,0.342,3.942,0.997,5.644c0.654,1.718,1.617,3.19,2.908,4.422
			c1.283,1.237,2.855,2.189,4.729,2.875C491.008,960.935,493.156,961.281,495.579,961.281z"/>
		<path fill="#B31D70" d="M586.303,995.178h-5.409c-1.192,0-2.15-0.182-2.896-0.552c-0.721-0.365-1.206-1.139-1.43-2.33
			l-1.374-6.433c-1.822,1.644-3.604,3.118-5.332,4.415c-1.743,1.298-3.563,2.396-5.489,3.288c-1.912,0.891-3.956,1.56-6.132,2.018
			c-2.146,0.457-4.558,0.693-7.19,0.693c-2.711,0-5.226-0.386-7.599-1.14c-2.344-0.746-4.374-1.886-6.104-3.398
			c-1.741-1.507-3.13-3.421-4.141-5.73c-1.033-2.321-1.544-5.045-1.544-8.215c0-2.739,0.745-5.391,2.253-7.932
			c1.505-2.542,3.943-4.794,7.297-6.766c3.366-1.967,7.742-3.585,13.179-4.847c5.45-1.264,12.077-1.887,19.937-1.887v-5.45
			c0-5.417-1.151-9.518-3.458-12.295c-2.305-2.778-5.723-4.174-10.23-4.174c-2.973,0-5.474,0.383-7.519,1.129
			c-2.031,0.753-3.775,1.598-5.268,2.541c-1.479,0.931-2.75,1.768-3.812,2.527c-1.073,0.754-2.147,1.126-3.208,1.126
			c-0.814,0-1.534-0.208-2.163-0.646c-0.614-0.439-1.072-0.977-1.467-1.617l-2.188-3.905c3.827-3.694,7.979-6.459,12.407-8.279
			c4.428-1.826,9.338-2.744,14.711-2.744c3.877,0,7.336,0.636,10.336,1.927c3.024,1.277,5.539,3.043,7.625,5.337
			c2.042,2.285,3.602,5.044,4.638,8.28c1.045,3.249,1.57,6.811,1.57,10.689V995.178L586.303,995.178z M554.666,987.712
			c2.148,0,4.113-0.217,5.896-0.655c1.768-0.428,3.459-1.048,5.031-1.849c1.572-0.8,3.076-1.769,4.52-2.906
			c1.439-1.142,2.841-2.45,4.216-3.904V964.08c-5.619,0-10.388,0.352-14.316,1.072c-3.931,0.708-7.126,1.644-9.59,2.791
			c-2.462,1.146-4.258,2.503-5.371,4.061c-1.127,1.566-1.689,3.313-1.689,5.239c0,1.834,0.303,3.42,0.903,4.743
			c0.589,1.336,1.389,2.422,2.398,3.274c0.982,0.846,2.187,1.468,3.563,1.861C551.588,987.515,553.067,987.712,554.666,987.712z"/>
		<path fill="#B31D70" d="M618.974,996.277c-5.476,0-9.706-1.533-12.655-4.592c-2.933-3.064-4.412-7.459-4.412-13.21v-42.465h-8.347
			c-0.732,0-1.349-0.215-1.847-0.648c-0.498-0.432-0.746-1.112-0.746-2.022v-4.867l11.355-1.441l2.818-21.424
			c0.092-0.688,0.394-1.252,0.877-1.678c0.512-0.44,1.152-0.661,1.927-0.661h6.17v23.899h19.846v8.838h-19.846v41.637
			c0,2.922,0.693,5.09,2.108,6.499c1.415,1.421,3.249,2.128,5.477,2.128c1.271,0,2.383-0.17,3.327-0.518
			c0.916-0.346,1.729-0.722,2.423-1.127c0.668-0.418,1.258-0.792,1.756-1.132c0.471-0.342,0.89-0.512,1.271-0.512
			c0.642,0,1.206,0.386,1.716,1.16l3.537,5.829c-2.097,1.959-4.611,3.503-7.611,4.618
			C625.184,995.715,622.119,996.277,618.974,996.277z"/>
		<path fill="#B31D70" d="M658.483,904.027c0,1.193-0.247,2.306-0.721,3.326c-0.484,1.03-1.127,1.947-1.926,2.74
			c-0.8,0.792-1.716,1.427-2.763,1.887c-1.049,0.459-2.176,0.692-3.368,0.692c-1.179,0-2.292-0.233-3.314-0.692
			c-1.021-0.453-1.952-1.089-2.738-1.887c-0.798-0.798-1.428-1.71-1.872-2.74c-0.472-1.021-0.694-2.133-0.694-3.326
			c0-1.184,0.223-2.312,0.694-3.391c0.444-1.063,1.074-1.999,1.872-2.805c0.786-0.8,1.718-1.429,2.738-1.873
			c1.022-0.459,2.136-0.695,3.314-0.695c1.192,0,2.319,0.236,3.368,0.695c1.047,0.444,1.963,1.087,2.763,1.873
			c0.799,0.806,1.441,1.742,1.926,2.805C658.236,901.716,658.483,902.844,658.483,904.027z M655.733,925.813v69.364h-12.172v-69.364
			H655.733z"/>
		<path fill="#B31D70" d="M698.465,924.713c5.069,0,9.641,0.838,13.741,2.53c4.073,1.688,7.546,4.087,10.402,7.19
			c2.855,3.104,5.042,6.852,6.576,11.267c1.519,4.4,2.291,9.325,2.291,14.762c0,5.476-0.772,10.402-2.291,14.785
			c-1.546,4.381-3.721,8.12-6.576,11.232c-2.856,3.104-6.329,5.488-10.402,7.152c-4.101,1.664-8.672,2.502-13.741,2.502
			c-5.058,0-9.655-0.838-13.729-2.502c-4.088-1.67-7.572-4.049-10.453-7.152c-2.882-3.106-5.083-6.846-6.628-11.232
			c-1.547-4.383-2.347-9.31-2.347-14.785c0-5.437,0.787-10.354,2.347-14.762c1.545-4.415,3.758-8.162,6.628-11.267
			c2.881-3.104,6.353-5.503,10.453-7.19C688.822,925.551,693.407,924.713,698.465,924.713z M698.465,986.618
			c6.837,0,11.959-2.302,15.34-6.885c3.38-4.579,5.069-10.992,5.069-19.203c0-8.255-1.689-14.701-5.069-19.312
			c-3.381-4.61-8.503-6.917-15.34-6.917c-3.471,0-6.472,0.596-9.039,1.783c-2.567,1.19-4.69,2.906-6.405,5.134
			c-1.717,2.228-2.987,4.991-3.827,8.252c-0.852,3.263-1.269,6.951-1.269,11.06c0,4.11,0.417,7.779,1.269,11.027
			c0.84,3.234,2.11,5.974,3.827,8.183c1.715,2.22,3.838,3.916,6.405,5.103C691.993,986.021,694.994,986.618,698.465,986.618z"/>
		<path fill="#B31D70" d="M739.69,995.178v-69.364h7.257c1.742,0,2.829,0.838,3.288,2.528l0.956,7.532
			c3.013-3.341,6.38-6.026,10.101-8.083c3.72-2.055,8.029-3.078,12.903-3.078c3.785,0,7.14,0.629,10.047,1.881
			c2.895,1.264,5.305,3.038,7.259,5.344c1.938,2.3,3.419,5.075,4.401,8.318c1.02,3.243,1.518,6.818,1.518,10.75v44.172h-12.194
			v-44.172c0-5.254-1.193-9.322-3.576-12.217c-2.41-2.9-6.065-4.355-11.005-4.355c-3.602,0-6.983,0.871-10.113,2.606
			c-3.117,1.729-5.999,4.081-8.645,7.054v51.084H739.69z"/>
		<path fill="#B31D70" d="M810.901,995.178v-98.132h31.294c6.041,0,11.229,0.59,15.59,1.776c4.351,1.191,7.939,2.881,10.756,5.068
			c2.805,2.193,4.874,4.88,6.223,8.05c1.336,3.171,2.018,6.74,2.018,10.716c0,2.425-0.369,4.748-1.127,6.981
			c-0.747,2.235-1.9,4.31-3.419,6.236c-1.533,1.913-3.446,3.621-5.752,5.136c-2.292,1.506-5.018,2.736-8.12,3.694
			c7.166,1.414,12.575,3.995,16.229,7.741c3.655,3.74,5.477,8.673,5.477,14.79c0,4.153-0.76,7.94-2.293,11.358
			c-1.531,3.42-3.761,6.372-6.709,8.835c-2.946,2.469-6.548,4.37-10.817,5.719c-4.272,1.35-9.146,2.017-14.621,2.017h-34.728
			V995.178z M824.197,941.01h17.527c3.747,0,6.982-0.42,9.707-1.237c2.738-0.819,5.016-1.967,6.824-3.427
			c1.81-1.461,3.146-3.222,4.011-5.313c0.863-2.075,1.295-4.341,1.295-6.817c0-5.743-1.74-9.96-5.198-12.66
			c-3.474-2.692-8.855-4.041-16.168-4.041h-17.998V941.01L824.197,941.01z M824.197,950.455v34.17h21.223
			c3.784,0,7.047-0.439,9.758-1.303c2.726-0.871,4.952-2.096,6.707-3.662c1.758-1.577,3.053-3.451,3.864-5.612
			c0.825-2.177,1.232-4.56,1.232-7.16c0-5.063-1.781-9.07-5.357-12.019c-3.604-2.94-9.013-4.414-16.271-4.414H824.197z"/>
		<path fill="#B31D70" d="M941.705,995.178h-5.425c-1.179,0-2.135-0.182-2.869-0.552c-0.733-0.365-1.218-1.139-1.44-2.33
			l-1.362-6.433c-1.834,1.644-3.615,3.118-5.344,4.415c-1.743,1.298-3.564,2.396-5.478,3.288c-1.926,0.891-3.969,1.56-6.131,2.018
			c-2.174,0.457-4.585,0.693-7.23,0.693c-2.685,0-5.201-0.386-7.559-1.14c-2.357-0.746-4.401-1.886-6.13-3.398
			c-1.744-1.514-3.119-3.421-4.14-5.73c-1.022-2.321-1.547-5.045-1.547-8.215c0-2.739,0.746-5.391,2.267-7.932
			c1.506-2.542,3.929-4.794,7.295-6.766c3.341-1.967,7.743-3.585,13.18-4.847c5.437-1.264,12.064-1.887,19.938-1.887v-5.45
			c0-5.417-1.164-9.518-3.483-12.295c-2.307-2.778-5.712-4.174-10.219-4.174c-2.96,0-5.462,0.383-7.493,1.129
			c-2.043,0.753-3.786,1.598-5.279,2.541c-1.48,0.931-2.765,1.768-3.824,2.527c-1.086,0.754-2.136,1.126-3.196,1.126
			c-0.812,0-1.546-0.208-2.148-0.646c-0.616-0.439-1.114-0.977-1.48-1.617l-2.189-3.905c3.841-3.694,7.965-6.459,12.394-8.279
			c4.442-1.826,9.341-2.744,14.712-2.744c3.891,0,7.349,0.636,10.361,1.927c3.013,1.277,5.541,3.043,7.598,5.337
			c2.058,2.285,3.603,5.044,4.652,8.28c1.061,3.249,1.572,6.811,1.572,10.689V995.178L941.705,995.178z M910.055,987.712
			c2.147,0,4.114-0.217,5.895-0.655c1.781-0.428,3.444-1.048,5.03-1.849c1.585-0.8,3.079-1.769,4.52-2.906
			c1.44-1.142,2.843-2.45,4.218-3.904V964.08c-5.619,0-10.387,0.352-14.317,1.072c-3.931,0.708-7.126,1.644-9.59,2.791
			c-2.463,1.146-4.257,2.503-5.371,4.061c-1.127,1.566-1.677,3.313-1.677,5.239c0,1.834,0.289,3.42,0.878,4.743
			c0.603,1.336,1.401,2.422,2.41,3.274c0.982,0.846,2.188,1.468,3.55,1.861C906.963,987.507,908.456,987.712,910.055,987.712z"/>
		<path fill="#B31D70" d="M953.35,995.178v-69.364h6.969c1.323,0,2.24,0.243,2.75,0.747c0.484,0.498,0.84,1.368,0.997,2.594
			l0.825,10.819c2.385-4.832,5.318-8.612,8.815-11.33c3.485-2.711,7.586-4.075,12.288-4.075c1.926,0,3.655,0.225,5.199,0.648
			c1.548,0.438,2.989,1.042,4.324,1.814l-1.585,9.111c-0.301,1.146-1.007,1.71-2.109,1.71c-0.642,0-1.624-0.224-2.948-0.655
			c-1.322-0.431-3.17-0.649-5.553-0.649c-4.23,0-7.795,1.232-10.637,3.694c-2.855,2.464-5.239,6.047-7.154,10.75v44.172H953.35
			V995.178z"/>
	</g>
	<g>
		<path fill="#B31D70" d="M512.505,3.828c-226.61,0-410.315,183.704-410.315,410.313c0,226.598,183.705,410.306,410.315,410.306
			c226.596,0,410.31-183.708,410.31-410.306C922.814,187.525,739.113,3.828,512.505,3.828z M758.842,638.715h-15.234
			c-4.757,0-8.764-4.61-11.66-8.764l-127.37-172.322v181.085h-14.83c-4.755,0-10.61-4.61-13.518-8.764L443.599,453.083v185.631
			h-26.828V416.227L288.993,246.461c0.629,6.21,0.342,12.099,0.342,17.685v374.569h-26.829V196.043h19.198
			c2.901,0,4.898-0.321,6.563,0.396c1.644,0.724,2.037,1.703,3.904,4.191l124.6,168.914V196.043h18.798
			c2.902,0,4.742-0.321,6.393,0.396c1.651,0.724,4.206,1.703,6.065,4.191l129.723,173.063V196.043h26.828v215.019l127.62,169.805
			c-0.617-6.203-0.184-12.197-0.184-17.986V196.043h26.828V638.715z"/>
		<path fill="#B31D70" d="M577.749,420.363L445.066,246.461c0.628,6.21-1.468,12.099-1.468,17.685v142.34l132.684,174.381
			c-0.616-6.203,1.467-12.197,1.467-17.986V420.363z"/>
	</g>
</g>
</svg>
