<?xml version="1.0" encoding="utf-8"?>
<!-- Generator: Adobe Illustrator 16.0.0, SVG Export Plug-In . SVG Version: 6.00 Build 0)  -->
<!DOCTYPE svg PUBLIC "-//W3C//DTD SVG 1.1//EN" "http://www.w3.org/Graphics/SVG/1.1/DTD/svg11.dtd">
<svg version="1.1" xmlns="http://www.w3.org/2000/svg" xmlns:xlink="http://www.w3.org/1999/xlink" x="0px" y="0px" width="900px"
	 height="900px" viewBox="0 0 900 900" enable-background="new 0 0 900 900" xml:space="preserve">
<g id="Layer_1">
	<g id="Layer_1_1_">
		<rect fill="#FFFFFF" width="900" height="900"/>
		<rect y="300" width="900" height="300"/>
	</g>
</g>
<g id="Layer_2">
	<g>
		<path fill="#B31D70" d="M214.085,131.183c0.335,0.045,0.638,0.129,0.906,0.252s0.525,0.297,0.772,0.521
			c0.246,0.224,0.526,0.526,0.839,0.906l23.229,29.372c-0.09-0.939-0.157-1.851-0.201-2.736c-0.045-0.883-0.067-1.717-0.067-2.5
			v-25.881h10.003v48.908h-5.908c-0.873,0-1.611-0.134-2.215-0.403s-1.187-0.76-1.746-1.477l-23.061-29.137
			c0.067,0.851,0.123,1.684,0.168,2.501c0.045,0.817,0.067,1.583,0.067,2.299v26.216h-10.003v-48.908h5.975
			C213.335,131.115,213.75,131.138,214.085,131.183z"/>
		<path fill="#B31D70" d="M261.482,131.183c0.335,0.045,0.638,0.129,0.907,0.252c0.268,0.123,0.525,0.297,0.771,0.521
			c0.247,0.224,0.526,0.526,0.839,0.906l23.229,29.372c-0.089-0.939-0.156-1.851-0.201-2.736c-0.045-0.883-0.067-1.717-0.067-2.5
			v-25.881h10.003v48.908h-5.908c-0.873,0-1.611-0.134-2.215-0.403c-0.604-0.269-1.187-0.76-1.746-1.477l-23.061-29.137
			c0.067,0.851,0.123,1.684,0.168,2.501c0.044,0.817,0.067,1.583,0.067,2.299v26.216h-10.003v-48.908h5.975
			C260.732,131.115,261.146,131.138,261.482,131.183z"/>
		<path fill="#B31D70" d="M308.124,132.139c0.28,0.146,0.599,0.442,0.957,0.89l27.861,36.253c-0.067-0.582-0.112-1.146-0.134-1.695
			c-0.023-0.548-0.034-1.08-0.034-1.595v-34.071h5.707v48.102h-3.29c-0.515,0-0.946-0.089-1.292-0.269
			c-0.348-0.179-0.688-0.481-1.024-0.906l-27.828-36.219c0.044,0.559,0.078,1.107,0.101,1.645c0.022,0.537,0.034,1.029,0.034,1.477
			v34.272h-5.707v-48.102h3.356C307.414,131.921,307.844,131.994,308.124,132.139z"/>
		<path fill="#B31D70" d="M374.907,180.023h-2.652c-0.582,0-1.052-0.089-1.41-0.269c-0.358-0.179-0.593-0.559-0.705-1.142
			l-0.671-3.155c-0.896,0.805-1.768,1.527-2.619,2.165c-0.85,0.638-1.746,1.175-2.685,1.611c-0.94,0.437-1.942,0.767-3.004,0.99
			c-1.063,0.224-2.244,0.336-3.542,0.336c-1.321,0-2.557-0.186-3.709-0.555c-1.153-0.371-2.154-0.927-3.005-1.668
			c-0.85-0.741-1.527-1.678-2.03-2.813c-0.503-1.134-0.755-2.476-0.755-4.025c0-1.347,0.369-2.644,1.108-3.891
			c0.738-1.246,1.93-2.352,3.575-3.317s3.798-1.757,6.462-2.375c2.663-0.617,5.919-0.926,9.768-0.926v-2.668
			c0-2.657-0.565-4.667-1.695-6.029c-1.13-1.362-2.803-2.044-5.018-2.044c-1.455,0-2.68,0.185-3.676,0.554
			c-0.996,0.37-1.858,0.784-2.584,1.242c-0.728,0.459-1.354,0.873-1.88,1.242c-0.526,0.369-1.046,0.554-1.561,0.554
			c-0.403,0-0.755-0.106-1.058-0.319c-0.302-0.212-0.542-0.475-0.722-0.789l-1.074-1.913c1.879-1.813,3.904-3.167,6.075-4.062
			c2.17-0.895,4.577-1.343,7.217-1.343c1.902,0,3.592,0.314,5.069,0.94s2.719,1.499,3.726,2.618s1.768,2.473,2.282,4.062
			s0.772,3.334,0.772,5.236V180.023z M359.398,176.365c1.051,0,2.014-0.106,2.887-0.319c0.873-0.212,1.695-0.515,2.467-0.906
			c0.772-0.392,1.51-0.867,2.215-1.427c0.705-0.559,1.393-1.197,2.064-1.913v-7.016c-2.752,0-5.091,0.175-7.016,0.523
			c-1.925,0.349-3.491,0.806-4.7,1.367c-1.208,0.563-2.086,1.227-2.635,1.993s-0.823,1.62-0.823,2.565c0,0.9,0.146,1.677,0.437,2.33
			c0.291,0.653,0.683,1.188,1.175,1.604c0.492,0.417,1.074,0.721,1.746,0.912C357.888,176.269,358.614,176.365,359.398,176.365z"/>
		<path fill="#B31D70" d="M375.242,146.02h4.901c0.47,0,0.861,0.123,1.175,0.37c0.313,0.246,0.538,0.537,0.671,0.872l8.627,21.886
			c0.313,0.806,0.559,1.611,0.739,2.417c0.178,0.806,0.346,1.6,0.503,2.383c0.179-0.783,0.369-1.578,0.571-2.383
			c0.201-0.806,0.458-1.611,0.772-2.417l8.727-21.886c0.135-0.357,0.353-0.654,0.655-0.889c0.302-0.235,0.676-0.353,1.125-0.353
			h4.666l-13.863,34.004h-5.404L375.242,146.02z"/>
		<path fill="#B31D70" d="M418.544,135.345c0,0.582-0.118,1.125-0.353,1.628s-0.549,0.952-0.94,1.343
			c-0.392,0.392-0.845,0.7-1.359,0.923c-0.515,0.224-1.063,0.336-1.646,0.336c-0.582,0-1.125-0.112-1.628-0.336
			c-0.503-0.223-0.952-0.531-1.342-0.923c-0.392-0.391-0.7-0.839-0.923-1.343c-0.224-0.503-0.336-1.046-0.336-1.628
			s0.112-1.136,0.336-1.662c0.223-0.525,0.531-0.984,0.923-1.376c0.391-0.391,0.839-0.699,1.342-0.923
			c0.503-0.223,1.046-0.335,1.628-0.335c0.582,0,1.13,0.112,1.646,0.335c0.515,0.224,0.967,0.532,1.359,0.923
			c0.391,0.392,0.705,0.851,0.94,1.376C418.427,134.209,418.544,134.763,418.544,135.345z M417.201,146.02v34.004h-5.975V146.02
			H417.201z"/>
		<path fill="#B31D70" d="M435.832,145.449c1.477,0,2.858,0.163,4.145,0.487c1.287,0.325,2.456,0.8,3.509,1.427h9.23v2.215
			c0,0.739-0.47,1.208-1.41,1.41l-3.859,0.537c0.76,1.455,1.141,3.078,1.141,4.867c0,1.657-0.318,3.162-0.957,4.515
			c-0.638,1.354-1.521,2.512-2.651,3.474c-1.13,0.963-2.474,1.701-4.027,2.216c-1.557,0.515-3.263,0.772-5.119,0.772
			c-1.59,0-3.089-0.19-4.499-0.571c-0.716,0.462-1.258,0.96-1.628,1.492c-0.368,0.532-0.554,1.053-0.554,1.562
			c0,0.833,0.324,1.463,0.974,1.891c0.648,0.428,1.511,0.735,2.584,0.92c1.075,0.186,2.294,0.277,3.66,0.277
			c1.364,0,2.757,0,4.179,0c1.421,0,2.813,0.125,4.18,0.375c1.363,0.249,2.584,0.656,3.658,1.223s1.935,1.349,2.584,2.345
			s0.974,2.288,0.974,3.873c0,1.473-0.363,2.9-1.091,4.282c-0.728,1.381-1.773,2.611-3.138,3.688
			c-1.366,1.075-3.033,1.936-5.002,2.583c-1.97,0.645-4.196,0.968-6.68,0.968c-2.484,0-4.66-0.247-6.529-0.739
			c-1.868-0.494-3.418-1.155-4.649-1.983c-1.231-0.829-2.153-1.787-2.769-2.874c-0.616-1.087-0.923-2.223-0.923-3.411
			c0-1.68,0.532-3.108,1.595-4.284c1.063-1.175,2.523-2.112,4.381-2.806c-0.963-0.446-1.729-1.044-2.299-1.792
			c-0.571-0.749-0.856-1.749-0.856-3c0-0.491,0.089-0.999,0.269-1.525c0.178-0.525,0.453-1.044,0.822-1.558
			c0.369-0.514,0.822-1.005,1.359-1.475c0.537-0.469,1.163-0.882,1.88-1.24c-1.679-0.939-2.994-2.187-3.944-3.743
			c-0.951-1.555-1.427-3.374-1.427-5.455c0-1.655,0.319-3.16,0.957-4.515c0.638-1.354,1.527-2.506,2.668-3.458
			c1.142-0.951,2.502-1.684,4.078-2.199C432.223,145.707,433.951,145.449,435.832,145.449z M446.439,181.749
			c0-0.867-0.235-1.563-0.705-2.088c-0.47-0.525-1.108-0.931-1.914-1.216c-0.805-0.285-1.734-0.496-2.785-0.633
			c-1.053-0.137-2.16-0.205-3.324-0.205s-2.35,0-3.558,0c-1.209,0-2.362-0.151-3.457-0.454c-1.276,0.605-2.312,1.346-3.105,2.219
			c-0.795,0.873-1.191,1.916-1.191,3.126c0,0.762,0.195,1.473,0.587,2.135c0.392,0.661,0.99,1.232,1.796,1.715
			c0.806,0.481,1.818,0.862,3.038,1.143c1.22,0.279,2.657,0.42,4.313,0.42c1.611,0,3.055-0.148,4.33-0.445s2.354-0.719,3.239-1.267
			c0.884-0.548,1.562-1.199,2.031-1.951C446.204,183.495,446.439,182.662,446.439,181.749z M435.832,163.408
			c1.208,0,2.276-0.168,3.205-0.503c0.929-0.336,1.706-0.806,2.333-1.41c0.626-0.604,1.096-1.326,1.41-2.165
			c0.313-0.839,0.47-1.762,0.47-2.77c0-2.081-0.633-3.737-1.896-4.968c-1.265-1.23-3.105-1.847-5.521-1.847
			c-2.396,0-4.225,0.616-5.488,1.847c-1.265,1.231-1.896,2.887-1.896,4.968c0,1.007,0.162,1.93,0.486,2.77
			c0.323,0.839,0.8,1.561,1.427,2.165c0.626,0.604,1.398,1.074,2.316,1.41C433.594,163.24,434.646,163.408,435.832,163.408z"/>
		<path fill="#B31D70" d="M480.307,180.023h-2.651c-0.583,0-1.053-0.089-1.41-0.269c-0.358-0.179-0.593-0.559-0.705-1.142
			l-0.671-3.155c-0.896,0.805-1.769,1.527-2.618,2.165c-0.852,0.638-1.745,1.175-2.686,1.611c-0.94,0.437-1.941,0.767-3.005,0.99
			c-1.063,0.224-2.243,0.336-3.541,0.336c-1.32,0-2.557-0.186-3.709-0.555c-1.153-0.371-2.154-0.927-3.005-1.668
			c-0.851-0.741-1.526-1.678-2.03-2.813c-0.504-1.134-0.756-2.476-0.756-4.025c0-1.347,0.37-2.644,1.108-3.891
			c0.738-1.246,1.931-2.352,3.575-3.317s3.798-1.757,6.461-2.375c2.664-0.617,5.919-0.926,9.769-0.926v-2.668
			c0-2.657-0.565-4.667-1.695-6.029c-1.13-1.362-2.803-2.044-5.019-2.044c-1.455,0-2.68,0.185-3.676,0.554
			c-0.995,0.37-1.857,0.784-2.584,1.242c-0.728,0.459-1.354,0.873-1.88,1.242c-0.525,0.369-1.047,0.554-1.562,0.554
			c-0.402,0-0.755-0.106-1.057-0.319c-0.303-0.212-0.543-0.475-0.723-0.789l-1.073-1.913c1.88-1.813,3.904-3.167,6.075-4.062
			s4.577-1.343,7.218-1.343c1.902,0,3.591,0.314,5.068,0.94c1.477,0.626,2.719,1.499,3.726,2.618s1.768,2.473,2.283,4.062
			c0.515,1.589,0.771,3.334,0.771,5.236V180.023z M464.799,176.365c1.052,0,2.015-0.106,2.887-0.319
			c0.873-0.212,1.695-0.515,2.468-0.906c0.771-0.392,1.51-0.867,2.216-1.427c0.704-0.559,1.392-1.197,2.063-1.913v-7.016
			c-2.752,0-5.091,0.175-7.016,0.523c-1.925,0.349-3.491,0.806-4.699,1.367c-1.209,0.563-2.087,1.227-2.636,1.993
			c-0.548,0.766-0.822,1.62-0.822,2.565c0,0.9,0.146,1.677,0.437,2.33s0.683,1.188,1.176,1.604c0.491,0.417,1.073,0.721,1.745,0.912
			C463.288,176.269,464.015,176.365,464.799,176.365z"/>
		<path fill="#B31D70" d="M496.318,180.561c-2.686,0-4.75-0.75-6.193-2.249c-1.443-1.499-2.165-3.659-2.165-6.479v-20.812h-4.095
			c-0.359,0-0.66-0.106-0.906-0.319c-0.247-0.212-0.37-0.542-0.37-0.99v-2.383l5.572-0.705l1.377-10.507
			c0.044-0.336,0.188-0.609,0.436-0.823c0.246-0.212,0.56-0.319,0.94-0.319h3.021v11.715h9.735v4.33h-9.735v20.409
			c0,1.433,0.348,2.496,1.041,3.189c0.693,0.694,1.589,1.041,2.686,1.041c0.626,0,1.169-0.084,1.628-0.252
			c0.458-0.167,0.855-0.352,1.192-0.554c0.335-0.201,0.62-0.386,0.855-0.554c0.235-0.167,0.441-0.251,0.621-0.251
			c0.313,0,0.592,0.191,0.839,0.571l1.745,2.854c-1.029,0.962-2.271,1.717-3.726,2.266
			C499.361,180.286,497.862,180.561,496.318,180.561z"/>
		<path fill="#B31D70" d="M515.686,135.345c0,0.582-0.117,1.125-0.352,1.628c-0.235,0.503-0.55,0.952-0.94,1.343
			c-0.393,0.392-0.845,0.7-1.359,0.923c-0.516,0.224-1.063,0.336-1.646,0.336s-1.124-0.112-1.628-0.336
			c-0.504-0.223-0.951-0.531-1.342-0.923c-0.393-0.391-0.7-0.839-0.924-1.343s-0.336-1.046-0.336-1.628s0.112-1.136,0.336-1.662
			c0.224-0.525,0.531-0.984,0.924-1.376c0.391-0.391,0.838-0.699,1.342-0.923c0.504-0.223,1.046-0.335,1.628-0.335
			s1.13,0.112,1.646,0.335c0.515,0.224,0.967,0.532,1.359,0.923c0.391,0.392,0.705,0.851,0.94,1.376
			C515.568,134.209,515.686,134.763,515.686,135.345z M514.343,146.02v34.004h-5.976V146.02H514.343z"/>
		<path fill="#B31D70" d="M535.289,145.482c2.483,0,4.728,0.415,6.73,1.242c2.003,0.828,3.704,2.003,5.103,3.524
			c1.398,1.522,2.472,3.363,3.223,5.522c0.749,2.16,1.124,4.571,1.124,7.234c0,2.685-0.375,5.103-1.124,7.25
			c-0.751,2.148-1.824,3.984-3.223,5.505c-1.398,1.522-3.1,2.69-5.103,3.507s-4.247,1.225-6.73,1.225
			c-2.484,0-4.728-0.408-6.73-1.225s-3.709-1.985-5.119-3.507c-1.409-1.521-2.495-3.357-3.255-5.505
			c-0.762-2.148-1.143-4.565-1.143-7.25c0-2.663,0.381-5.074,1.143-7.234c0.76-2.159,1.846-4,3.255-5.522
			c1.41-1.521,3.116-2.696,5.119-3.524C530.562,145.897,532.805,145.482,535.289,145.482z M535.289,175.828
			c3.357,0,5.863-1.125,7.52-3.374c1.655-2.249,2.484-5.388,2.484-9.416c0-4.05-0.829-7.206-2.484-9.466
			c-1.656-2.26-4.162-3.39-7.52-3.39c-1.701,0-3.178,0.291-4.431,0.873s-2.3,1.421-3.139,2.518c-0.839,1.097-1.466,2.445-1.88,4.045
			c-0.414,1.6-0.621,3.407-0.621,5.421c0,2.014,0.207,3.815,0.621,5.404s1.041,2.926,1.88,4.011c0.839,1.085,1.886,1.919,3.139,2.5
			C532.111,175.537,533.588,175.828,535.289,175.828z"/>
		<path fill="#B31D70" d="M555.496,180.023V146.02h3.559c0.85,0,1.387,0.415,1.611,1.242l0.47,3.693
			c1.477-1.634,3.127-2.954,4.952-3.961c1.822-1.007,3.933-1.511,6.327-1.511c1.856,0,3.496,0.308,4.917,0.923
			c1.422,0.616,2.607,1.489,3.559,2.619c0.951,1.13,1.673,2.49,2.164,4.078c0.493,1.589,0.739,3.346,0.739,5.27v21.651h-5.975
			v-21.651c0-2.573-0.587-4.57-1.763-5.991c-1.175-1.421-2.971-2.132-5.387-2.132c-1.769,0-3.42,0.426-4.952,1.275
			c-1.532,0.851-2.948,2.003-4.246,3.458v25.042H555.496z"/>
		<path fill="#B31D70" d="M590.407,180.023v-48.102h15.341c2.953,0,5.5,0.291,7.637,0.873s3.894,1.41,5.27,2.484
			c1.377,1.074,2.395,2.389,3.055,3.944s0.991,3.306,0.991,5.253c0,1.187-0.185,2.328-0.555,3.424
			c-0.369,1.097-0.929,2.115-1.679,3.055s-1.689,1.779-2.819,2.518c-1.13,0.738-2.456,1.342-3.978,1.813
			c3.513,0.694,6.164,1.958,7.955,3.793s2.686,4.252,2.686,7.25c0,2.036-0.375,3.894-1.124,5.572
			c-0.751,1.678-1.846,3.122-3.29,4.33c-1.443,1.208-3.211,2.143-5.304,2.803c-2.092,0.66-4.48,0.99-7.167,0.99H590.407z
			 M596.92,153.472h8.593c1.835,0,3.424-0.202,4.767-0.604s2.456-0.962,3.341-1.678c0.883-0.716,1.537-1.583,1.963-2.602
			c0.425-1.018,0.638-2.131,0.638-3.34c0-2.82-0.851-4.889-2.551-6.21c-1.701-1.32-4.342-1.981-7.922-1.981h-8.828V153.472z
			 M596.92,158.104v16.75h10.406c1.856,0,3.451-0.212,4.783-0.638c1.331-0.425,2.428-1.024,3.289-1.795
			c0.861-0.772,1.494-1.69,1.896-2.753c0.403-1.063,0.604-2.232,0.604-3.508c0-2.484-0.879-4.448-2.636-5.891
			c-1.756-1.443-4.413-2.165-7.972-2.165H596.92z"/>
		<path fill="#B31D70" d="M654.521,180.023h-2.652c-0.582,0-1.052-0.089-1.41-0.269c-0.357-0.179-0.593-0.559-0.705-1.142
			l-0.671-3.155c-0.895,0.805-1.769,1.527-2.618,2.165c-0.851,0.638-1.745,1.175-2.686,1.611c-0.94,0.437-1.941,0.767-3.004,0.99
			c-1.063,0.224-2.244,0.336-3.542,0.336c-1.32,0-2.557-0.186-3.708-0.555c-1.154-0.371-2.155-0.927-3.005-1.668
			c-0.851-0.741-1.527-1.678-2.031-2.813c-0.503-1.134-0.756-2.476-0.756-4.025c0-1.347,0.37-2.644,1.108-3.891
			c0.738-1.246,1.931-2.352,3.575-3.317s3.798-1.757,6.461-2.375c2.664-0.617,5.919-0.926,9.77-0.926v-2.668
			c0-2.657-0.566-4.667-1.696-6.029c-1.13-1.362-2.803-2.044-5.018-2.044c-1.455,0-2.68,0.185-3.677,0.554
			c-0.995,0.37-1.857,0.784-2.584,1.242c-0.728,0.459-1.354,0.873-1.88,1.242c-0.525,0.369-1.047,0.554-1.561,0.554
			c-0.403,0-0.755-0.106-1.058-0.319s-0.543-0.475-0.722-0.789l-1.074-1.913c1.88-1.813,3.905-3.167,6.075-4.062
			c2.171-0.895,4.577-1.343,7.218-1.343c1.902,0,3.591,0.314,5.068,0.94c1.477,0.626,2.719,1.499,3.726,2.618
			c1.008,1.119,1.768,2.473,2.283,4.062c0.515,1.589,0.772,3.334,0.772,5.236V180.023z M639.012,176.365
			c1.052,0,2.015-0.106,2.887-0.319c0.873-0.212,1.695-0.515,2.468-0.906c0.771-0.392,1.51-0.867,2.216-1.427
			c0.704-0.559,1.392-1.197,2.064-1.913v-7.016c-2.753,0-5.092,0.175-7.017,0.523c-1.925,0.349-3.491,0.806-4.699,1.367
			c-1.208,0.563-2.087,1.227-2.636,1.993c-0.548,0.766-0.822,1.62-0.822,2.565c0,0.9,0.146,1.677,0.437,2.33
			c0.291,0.653,0.683,1.188,1.176,1.604c0.491,0.417,1.073,0.721,1.745,0.912C637.502,176.269,638.229,176.365,639.012,176.365z"/>
		<path fill="#B31D70" d="M660.226,180.023V146.02h3.424c0.649,0,1.097,0.123,1.344,0.37c0.245,0.246,0.413,0.671,0.503,1.275
			l0.402,5.304c1.164-2.372,2.602-4.224,4.313-5.555s3.721-1.998,6.025-1.998c0.94,0,1.79,0.106,2.552,0.319
			c0.76,0.213,1.465,0.509,2.114,0.89l-0.772,4.464c-0.156,0.56-0.502,0.84-1.039,0.84c-0.314,0-0.796-0.106-1.443-0.319
			c-0.65-0.212-1.557-0.319-2.72-0.319c-2.081,0-3.821,0.604-5.22,1.813c-1.399,1.208-2.568,2.966-3.508,5.27v21.651H660.226z"/>
	</g>
	<g>
		<path fill="#B31D70" d="M722.805,214.791c0.102,0.013,0.193,0.039,0.275,0.077c0.082,0.037,0.16,0.09,0.234,0.158
			c0.074,0.068,0.16,0.16,0.256,0.276l7.064,8.934c-0.027-0.286-0.047-0.563-0.061-0.833c-0.014-0.268-0.021-0.522-0.021-0.76
			v-7.872h3.043v14.875h-1.797c-0.266,0-0.488-0.041-0.674-0.123c-0.184-0.082-0.361-0.231-0.531-0.449l-7.014-8.862
			c0.021,0.258,0.039,0.512,0.051,0.76c0.016,0.249,0.021,0.481,0.021,0.7v7.974h-3.043v-14.875h1.816
			C722.576,214.771,722.701,214.777,722.805,214.791z"/>
		<path fill="#B31D70" d="M737.221,214.791c0.102,0.013,0.193,0.039,0.275,0.077c0.08,0.037,0.16,0.09,0.234,0.158
			c0.074,0.068,0.162,0.16,0.256,0.276l7.064,8.934c-0.027-0.286-0.049-0.563-0.061-0.833c-0.014-0.268-0.021-0.522-0.021-0.76
			v-7.872h3.043v14.875h-1.797c-0.266,0-0.49-0.041-0.674-0.123c-0.184-0.082-0.361-0.231-0.531-0.449l-7.014-8.862
			c0.021,0.258,0.037,0.512,0.051,0.76c0.014,0.249,0.021,0.481,0.021,0.7v7.974h-3.043v-14.875h1.818
			C736.992,214.771,737.119,214.777,737.221,214.791z"/>
		<path fill="#B31D70" d="M751.406,215.082c0.086,0.044,0.184,0.135,0.291,0.271l8.475,11.026c-0.021-0.177-0.033-0.349-0.041-0.516
			c-0.006-0.167-0.01-0.329-0.01-0.485v-10.362h1.734v14.63h-1c-0.156,0-0.287-0.027-0.393-0.082
			c-0.105-0.054-0.209-0.146-0.313-0.276l-8.463-11.016c0.014,0.17,0.023,0.336,0.029,0.5c0.008,0.163,0.01,0.313,0.01,0.449v10.424
			h-1.732v-14.63h1.018C751.189,215.016,751.32,215.039,751.406,215.082z"/>
		<path fill="#B31D70" d="M771.719,229.646h-0.807c-0.178,0-0.32-0.027-0.428-0.082c-0.111-0.054-0.182-0.17-0.215-0.347
			l-0.205-0.959c-0.273,0.245-0.539,0.464-0.797,0.658c-0.258,0.193-0.531,0.357-0.816,0.49c-0.285,0.133-0.59,0.233-0.914,0.301
			c-0.322,0.068-0.682,0.103-1.076,0.103c-0.402,0-0.779-0.057-1.129-0.169c-0.352-0.112-0.654-0.282-0.914-0.507
			c-0.258-0.226-0.465-0.51-0.617-0.855c-0.152-0.345-0.229-0.752-0.229-1.224c0-0.409,0.109-0.804,0.336-1.183
			c0.225-0.379,0.586-0.715,1.086-1.009c0.504-0.293,1.156-0.534,1.967-0.723c0.809-0.188,1.801-0.281,2.971-0.281v-0.812
			c0-0.808-0.172-1.419-0.516-1.833s-0.854-0.622-1.525-0.622c-0.443,0-0.816,0.057-1.119,0.168
			c-0.301,0.112-0.564,0.238-0.785,0.378c-0.223,0.14-0.414,0.265-0.572,0.377c-0.16,0.113-0.318,0.169-0.477,0.169
			c-0.121,0-0.229-0.032-0.32-0.097c-0.09-0.065-0.164-0.146-0.219-0.241l-0.328-0.582c0.572-0.551,1.189-0.963,1.85-1.235
			c0.66-0.272,1.391-0.409,2.195-0.409c0.578,0,1.092,0.095,1.541,0.287c0.449,0.19,0.828,0.455,1.133,0.796
			c0.307,0.341,0.539,0.752,0.693,1.235c0.156,0.484,0.236,1.015,0.236,1.593V229.646z M767.002,228.533
			c0.32,0,0.613-0.032,0.879-0.097c0.264-0.064,0.514-0.157,0.748-0.276c0.236-0.119,0.461-0.264,0.676-0.434
			s0.422-0.365,0.627-0.582v-2.134c-0.838,0-1.549,0.053-2.133,0.16c-0.586,0.106-1.063,0.245-1.43,0.416
			c-0.369,0.171-0.635,0.373-0.801,0.606c-0.168,0.233-0.252,0.493-0.252,0.78c0,0.274,0.045,0.511,0.133,0.708
			c0.09,0.199,0.207,0.361,0.357,0.488s0.326,0.219,0.531,0.277S766.764,228.533,767.002,228.533z"/>
		<path fill="#B31D70" d="M771.82,219.304h1.492c0.141,0,0.262,0.037,0.355,0.112c0.096,0.074,0.162,0.163,0.205,0.265l2.623,6.657
			c0.096,0.245,0.17,0.49,0.225,0.734c0.055,0.246,0.105,0.487,0.154,0.726c0.055-0.239,0.111-0.48,0.172-0.726
			c0.063-0.244,0.141-0.489,0.234-0.734l2.656-6.657c0.041-0.109,0.107-0.199,0.197-0.27c0.094-0.072,0.207-0.107,0.344-0.107h1.418
			l-4.217,10.342h-1.643L771.82,219.304z"/>
		<path fill="#B31D70" d="M784.99,216.057c0,0.177-0.035,0.343-0.105,0.496c-0.072,0.153-0.166,0.29-0.287,0.408
			c-0.119,0.119-0.258,0.213-0.414,0.281c-0.154,0.068-0.322,0.103-0.5,0.103s-0.342-0.034-0.494-0.103
			c-0.152-0.067-0.291-0.162-0.41-0.281c-0.117-0.119-0.211-0.255-0.279-0.408c-0.068-0.153-0.102-0.318-0.102-0.496
			c0-0.177,0.033-0.345,0.102-0.506c0.068-0.159,0.162-0.298,0.279-0.418c0.119-0.119,0.258-0.213,0.41-0.28
			c0.152-0.068,0.316-0.103,0.494-0.103s0.346,0.035,0.5,0.103c0.156,0.067,0.295,0.162,0.414,0.28
			c0.121,0.12,0.215,0.259,0.287,0.418C784.955,215.712,784.99,215.88,784.99,216.057z M784.582,219.304v10.342h-1.816v-10.342
			H784.582z"/>
		<path fill="#B31D70" d="M790.25,219.13c0.447,0,0.869,0.05,1.26,0.148c0.393,0.099,0.746,0.243,1.068,0.434h2.807v0.673
			c0,0.225-0.143,0.368-0.43,0.429l-1.174,0.163c0.23,0.442,0.348,0.937,0.348,1.481c0,0.504-0.098,0.962-0.291,1.373
			c-0.195,0.412-0.463,0.764-0.809,1.058c-0.342,0.292-0.75,0.517-1.225,0.673c-0.473,0.156-0.99,0.235-1.555,0.235
			c-0.484,0-0.941-0.058-1.369-0.174c-0.219,0.141-0.383,0.292-0.496,0.454c-0.111,0.162-0.168,0.32-0.168,0.475
			c0,0.254,0.098,0.445,0.297,0.576c0.197,0.13,0.459,0.223,0.785,0.279c0.326,0.057,0.697,0.084,1.113,0.084
			c0.414,0,0.838,0,1.27,0c0.434,0,0.857,0.039,1.273,0.114c0.414,0.076,0.785,0.2,1.111,0.372c0.328,0.173,0.588,0.411,0.787,0.714
			c0.197,0.303,0.295,0.696,0.295,1.178c0,0.448-0.109,0.882-0.332,1.303c-0.221,0.42-0.537,0.793-0.953,1.122
			c-0.416,0.327-0.924,0.588-1.521,0.785c-0.598,0.197-1.277,0.294-2.031,0.294c-0.758,0-1.418-0.075-1.986-0.225
			s-1.041-0.351-1.414-0.603s-0.654-0.544-0.842-0.875c-0.188-0.33-0.281-0.676-0.281-1.038c0-0.511,0.162-0.945,0.484-1.302
			c0.322-0.357,0.768-0.643,1.332-0.854c-0.291-0.136-0.525-0.317-0.697-0.545c-0.176-0.227-0.264-0.532-0.264-0.913
			c0-0.149,0.029-0.304,0.084-0.464s0.137-0.317,0.25-0.474c0.113-0.156,0.25-0.306,0.414-0.449
			c0.162-0.142,0.352-0.268,0.572-0.376c-0.512-0.286-0.912-0.666-1.201-1.138c-0.289-0.473-0.434-1.026-0.434-1.659
			c0-0.503,0.096-0.961,0.289-1.374c0.195-0.411,0.467-0.762,0.813-1.052c0.346-0.289,0.762-0.512,1.24-0.668
			C789.152,219.209,789.676,219.13,790.25,219.13z M793.475,230.17c0-0.264-0.072-0.475-0.213-0.635
			c-0.145-0.16-0.338-0.283-0.584-0.37c-0.244-0.086-0.527-0.15-0.846-0.192c-0.32-0.042-0.656-0.063-1.012-0.063
			c-0.354,0-0.715,0-1.082,0s-0.719-0.046-1.051-0.138c-0.389,0.184-0.703,0.409-0.945,0.674c-0.242,0.267-0.361,0.583-0.361,0.951
			c0,0.232,0.059,0.448,0.178,0.649c0.119,0.202,0.301,0.375,0.547,0.521c0.244,0.146,0.553,0.263,0.924,0.349
			c0.371,0.084,0.809,0.127,1.311,0.127c0.49,0,0.93-0.046,1.318-0.135c0.387-0.091,0.715-0.219,0.984-0.386
			c0.268-0.167,0.475-0.364,0.619-0.593C793.402,230.702,793.475,230.448,793.475,230.17z M790.25,224.593
			c0.367,0,0.691-0.052,0.975-0.154c0.281-0.102,0.52-0.245,0.709-0.428c0.189-0.184,0.332-0.404,0.428-0.659
			c0.096-0.254,0.143-0.536,0.143-0.842c0-0.634-0.191-1.137-0.576-1.512c-0.383-0.374-0.945-0.561-1.678-0.561
			c-0.73,0-1.287,0.188-1.672,0.561c-0.385,0.375-0.576,0.878-0.576,1.512c0,0.306,0.051,0.587,0.148,0.842
			c0.098,0.255,0.242,0.475,0.434,0.659c0.191,0.184,0.426,0.326,0.705,0.428C789.568,224.541,789.889,224.593,790.25,224.593z"/>
		<path fill="#B31D70" d="M803.775,229.646h-0.805c-0.178,0-0.322-0.027-0.432-0.082c-0.107-0.054-0.18-0.17-0.213-0.347
			l-0.205-0.959c-0.271,0.245-0.537,0.464-0.795,0.658c-0.26,0.193-0.531,0.357-0.818,0.49c-0.285,0.133-0.59,0.233-0.914,0.301
			c-0.322,0.068-0.68,0.103-1.074,0.103c-0.404,0-0.779-0.057-1.131-0.169c-0.35-0.112-0.654-0.282-0.912-0.507
			s-0.465-0.51-0.617-0.855c-0.154-0.345-0.23-0.752-0.23-1.224c0-0.409,0.111-0.804,0.336-1.183
			c0.225-0.379,0.588-0.715,1.088-1.009c0.502-0.293,1.154-0.534,1.965-0.723c0.813-0.188,1.801-0.281,2.973-0.281v-0.812
			c0-0.808-0.172-1.419-0.516-1.833s-0.854-0.622-1.525-0.622c-0.443,0-0.816,0.057-1.121,0.168
			c-0.303,0.112-0.564,0.238-0.785,0.378s-0.41,0.265-0.57,0.377c-0.16,0.113-0.32,0.169-0.477,0.169
			c-0.121,0-0.229-0.032-0.322-0.097c-0.092-0.065-0.162-0.146-0.219-0.241l-0.326-0.582c0.57-0.551,1.188-0.963,1.848-1.235
			c0.66-0.272,1.393-0.409,2.195-0.409c0.578,0,1.092,0.095,1.541,0.287c0.451,0.19,0.826,0.455,1.135,0.796
			c0.305,0.341,0.537,0.752,0.693,1.235c0.156,0.484,0.234,1.015,0.234,1.593V229.646z M799.059,228.533
			c0.32,0,0.613-0.032,0.879-0.097c0.264-0.064,0.516-0.157,0.75-0.276s0.459-0.264,0.674-0.434s0.424-0.365,0.629-0.582v-2.134
			c-0.838,0-1.549,0.053-2.135,0.16c-0.586,0.106-1.063,0.245-1.43,0.416s-0.635,0.373-0.801,0.606
			c-0.168,0.233-0.252,0.493-0.252,0.78c0,0.274,0.045,0.511,0.135,0.708c0.088,0.199,0.207,0.361,0.357,0.488
			c0.148,0.126,0.326,0.219,0.531,0.277C798.6,228.504,798.82,228.533,799.059,228.533z"/>
		<path fill="#B31D70" d="M808.646,229.81c-0.816,0-1.447-0.228-1.885-0.684c-0.438-0.457-0.658-1.113-0.658-1.97v-6.331h-1.246
			c-0.109,0-0.201-0.032-0.275-0.097c-0.074-0.064-0.111-0.165-0.111-0.301v-0.726l1.693-0.214l0.42-3.195
			c0.014-0.103,0.059-0.186,0.131-0.25c0.076-0.065,0.172-0.098,0.287-0.098h0.92v3.563h2.959v1.317h-2.959v6.208
			c0,0.436,0.104,0.759,0.314,0.969c0.211,0.212,0.486,0.317,0.818,0.317c0.189,0,0.355-0.025,0.496-0.077
			c0.137-0.051,0.258-0.107,0.361-0.168c0.1-0.062,0.188-0.118,0.262-0.168c0.07-0.052,0.133-0.077,0.188-0.077
			c0.096,0,0.18,0.058,0.256,0.173l0.529,0.869c-0.313,0.292-0.689,0.522-1.135,0.688
			C809.572,229.726,809.115,229.81,808.646,229.81z"/>
		<path fill="#B31D70" d="M814.537,216.057c0,0.177-0.037,0.343-0.107,0.496c-0.072,0.153-0.168,0.29-0.287,0.408
			s-0.256,0.213-0.412,0.281c-0.156,0.068-0.324,0.103-0.502,0.103c-0.176,0-0.342-0.034-0.494-0.103
			c-0.152-0.067-0.291-0.162-0.408-0.281c-0.119-0.119-0.213-0.255-0.279-0.408c-0.07-0.153-0.104-0.318-0.104-0.496
			c0-0.177,0.033-0.345,0.104-0.506c0.066-0.159,0.16-0.298,0.279-0.418c0.117-0.119,0.256-0.213,0.408-0.28
			c0.152-0.068,0.318-0.103,0.494-0.103c0.178,0,0.346,0.035,0.502,0.103c0.156,0.067,0.293,0.162,0.412,0.28
			c0.119,0.12,0.215,0.259,0.287,0.418C814.5,215.712,814.537,215.88,814.537,216.057z M814.127,219.304v10.342h-1.814v-10.342
			H814.127z"/>
		<path fill="#B31D70" d="M820.498,219.141c0.756,0,1.438,0.125,2.049,0.377c0.607,0.252,1.125,0.609,1.551,1.072
			c0.426,0.463,0.752,1.022,0.98,1.679c0.227,0.657,0.342,1.391,0.342,2.201c0,0.817-0.115,1.552-0.342,2.205
			c-0.229,0.653-0.555,1.211-0.98,1.675c-0.426,0.463-0.943,0.818-1.551,1.066c-0.611,0.248-1.293,0.373-2.049,0.373
			c-0.754,0-1.438-0.125-2.047-0.373c-0.609-0.249-1.129-0.604-1.557-1.066c-0.43-0.463-0.758-1.021-0.99-1.675
			c-0.23-0.653-0.348-1.388-0.348-2.205c0-0.81,0.117-1.543,0.348-2.201c0.232-0.657,0.561-1.216,0.99-1.679
			c0.428-0.463,0.947-0.82,1.557-1.072S819.744,219.141,820.498,219.141z M820.498,228.37c1.021,0,1.783-0.342,2.287-1.026
			c0.504-0.683,0.756-1.639,0.756-2.863c0-1.231-0.252-2.192-0.756-2.88c-0.504-0.687-1.266-1.03-2.287-1.03
			c-0.518,0-0.965,0.088-1.348,0.265c-0.381,0.177-0.699,0.433-0.955,0.765c-0.256,0.333-0.445,0.745-0.57,1.231
			c-0.127,0.487-0.189,1.036-0.189,1.649s0.063,1.16,0.189,1.644c0.125,0.483,0.314,0.89,0.57,1.22
			c0.256,0.331,0.574,0.584,0.955,0.761C819.533,228.281,819.98,228.37,820.498,228.37z"/>
		<path fill="#B31D70" d="M826.645,229.646v-10.342h1.082c0.26,0,0.422,0.125,0.49,0.377l0.143,1.123
			c0.449-0.497,0.951-0.898,1.506-1.204c0.555-0.307,1.197-0.459,1.924-0.459c0.564,0,1.064,0.093,1.498,0.28
			c0.432,0.188,0.791,0.453,1.082,0.797c0.289,0.343,0.51,0.757,0.656,1.24c0.152,0.484,0.227,1.017,0.227,1.603v6.585h-1.818
			v-6.585c0-0.783-0.178-1.39-0.535-1.822c-0.359-0.433-0.904-0.649-1.639-0.649c-0.537,0-1.041,0.13-1.508,0.388
			c-0.465,0.259-0.895,0.609-1.289,1.052v7.616H826.645z"/>
		<path fill="#B31D70" d="M837.262,229.646v-14.63h4.666c0.9,0,1.674,0.088,2.324,0.264c0.648,0.178,1.184,0.43,1.604,0.756
			c0.418,0.327,0.727,0.727,0.928,1.2c0.199,0.473,0.301,1.005,0.301,1.598c0,0.361-0.055,0.708-0.168,1.041
			c-0.111,0.333-0.283,0.643-0.51,0.929c-0.229,0.286-0.514,0.541-0.857,0.766s-0.748,0.408-1.211,0.551
			c1.068,0.211,1.875,0.596,2.42,1.154c0.545,0.558,0.816,1.293,0.816,2.205c0,0.62-0.113,1.184-0.342,1.694s-0.561,0.95-1,1.317
			c-0.439,0.368-0.977,0.651-1.613,0.853c-0.637,0.201-1.363,0.301-2.18,0.301H837.262z M839.244,221.57h2.613
			c0.559,0,1.041-0.062,1.449-0.184c0.408-0.123,0.748-0.293,1.016-0.511c0.27-0.218,0.469-0.481,0.598-0.792
			c0.129-0.309,0.193-0.648,0.193-1.016c0-0.857-0.26-1.486-0.775-1.888c-0.518-0.401-1.32-0.603-2.41-0.603h-2.684V221.57z
			 M839.244,222.979v5.094h3.164c0.566,0,1.051-0.065,1.455-0.194c0.406-0.13,0.738-0.312,1-0.546
			c0.262-0.235,0.455-0.514,0.576-0.837c0.123-0.324,0.184-0.679,0.184-1.067c0-0.755-0.266-1.353-0.799-1.792
			c-0.537-0.439-1.344-0.658-2.426-0.658H839.244z"/>
		<path fill="#B31D70" d="M856.764,229.646h-0.809c-0.176,0-0.318-0.027-0.428-0.082c-0.109-0.054-0.18-0.17-0.215-0.347
			l-0.203-0.959c-0.273,0.245-0.539,0.464-0.797,0.658c-0.258,0.193-0.531,0.357-0.816,0.49c-0.287,0.133-0.592,0.233-0.914,0.301
			c-0.324,0.068-0.684,0.103-1.078,0.103c-0.4,0-0.775-0.057-1.127-0.169c-0.352-0.112-0.656-0.282-0.914-0.507
			c-0.26-0.226-0.465-0.51-0.617-0.855c-0.152-0.345-0.23-0.752-0.23-1.224c0-0.409,0.111-0.804,0.338-1.183
			c0.225-0.379,0.586-0.715,1.088-1.009c0.498-0.293,1.154-0.534,1.965-0.723c0.809-0.188,1.799-0.281,2.971-0.281v-0.812
			c0-0.808-0.172-1.419-0.518-1.833c-0.344-0.414-0.852-0.622-1.525-0.622c-0.441,0-0.814,0.057-1.117,0.168
			c-0.303,0.112-0.564,0.238-0.787,0.378c-0.221,0.14-0.412,0.265-0.57,0.377c-0.162,0.113-0.318,0.169-0.477,0.169
			c-0.121,0-0.229-0.032-0.32-0.097c-0.092-0.065-0.166-0.146-0.221-0.241l-0.326-0.582c0.572-0.551,1.188-0.963,1.848-1.235
			c0.662-0.272,1.393-0.409,2.193-0.409c0.58,0,1.096,0.095,1.545,0.287c0.449,0.19,0.826,0.455,1.133,0.796
			s0.537,0.752,0.693,1.235c0.158,0.484,0.236,1.015,0.236,1.593V229.646z M852.045,228.533c0.32,0,0.613-0.032,0.879-0.097
			c0.266-0.064,0.514-0.157,0.75-0.276s0.459-0.264,0.674-0.434s0.424-0.365,0.629-0.582v-2.134c-0.838,0-1.549,0.053-2.135,0.16
			c-0.586,0.106-1.063,0.245-1.43,0.416s-0.635,0.373-0.801,0.606c-0.168,0.233-0.25,0.493-0.25,0.78
			c0,0.274,0.043,0.511,0.131,0.708c0.09,0.199,0.209,0.361,0.359,0.488c0.148,0.126,0.328,0.219,0.531,0.277
			S851.807,228.533,852.045,228.533z"/>
		<path fill="#B31D70" d="M858.5,229.646v-10.342h1.039c0.197,0,0.334,0.037,0.41,0.112c0.072,0.074,0.125,0.204,0.15,0.387
			l0.123,1.613c0.355-0.721,0.793-1.284,1.313-1.69c0.521-0.404,1.131-0.607,1.832-0.607c0.287,0,0.545,0.033,0.777,0.097
			c0.23,0.065,0.445,0.155,0.643,0.271l-0.236,1.358c-0.045,0.17-0.15,0.254-0.314,0.254c-0.096,0-0.242-0.032-0.439-0.097
			s-0.473-0.097-0.828-0.097c-0.631,0-1.162,0.184-1.586,0.551c-0.426,0.367-0.781,0.902-1.068,1.603v6.585H858.5z"/>
	</g>
	<g>
		<path fill="#B31D70" d="M114.326,79.717c-41.834,0-75.746,33.913-75.746,75.747c0,41.833,33.912,75.746,75.746,75.746
			c41.833,0,75.746-33.913,75.746-75.746C190.072,113.629,156.16,79.717,114.326,79.717z M159.5,196.5h-2.511
			c-0.878,0-2.03-0.643-2.564-1.406L130.5,163.493V196.5h-1.915c-0.878,0-2.013-0.643-2.547-1.406L101.5,162.652V196.5h-5v-40.65
			L73.175,124.51c0.114,1.146,0.325,2.233,0.325,3.264V196.5h-5v-81h3.22c0.534,0,0.904-0.209,1.21-0.076
			c0.305,0.134,0.299,0.239,0.643,0.698L96.5,147.23V115.5h3.624c0.534,0,0.874-0.209,1.18-0.076
			c0.306,0.134,0.342,0.239,0.685,0.698l23.511,31.875V115.5h5v39.395l23.797,31.349c-0.114-1.145,0.203-2.251,0.203-3.321V115.5h5
			V196.5z"/>
		<path fill="#B31D70" d="M125.5,156.614l-24.111-32.104c0.115,1.146,0.111,2.233,0.111,3.264v26.277l24.112,32.191
			c-0.115-1.145-0.112-2.251-0.112-3.321V156.614z"/>
	</g>
	<g>
		<path fill="#B31D70" d="M792.773,81.842c-33.786,0-61.175,27.389-61.175,61.175c0,33.785,27.389,61.174,61.175,61.174
			c33.785,0,61.174-27.389,61.174-61.174C853.947,109.23,826.559,81.842,792.773,81.842z M829.5,176.5h-2.271
			c-0.709,0-1.307-0.688-1.738-1.306l-18.99-25.693V176.5h-2.212c-0.708,0-1.581-0.688-2.015-1.306L782.5,148.823V176.5h-4v-33.172
			l-19.051-25.311c0.094,0.926,0.051,1.804,0.051,2.637V176.5h-4v-66h2.862c0.433,0,0.731-0.048,0.979,0.059
			c0.245,0.108,0.304,0.254,0.582,0.625l18.577,25.184V110.5h2.803c0.432,0,0.707-0.048,0.953,0.059
			c0.246,0.108,0.627,0.254,0.904,0.625l19.34,25.803V110.5h4v32.058l19.027,25.317c-0.092-0.925-0.027-1.818-0.027-2.682V110.5h4
			V176.5z"/>
		<path fill="#B31D70" d="M802.5,143.945l-19.781-25.928c0.094,0.926-0.219,1.804-0.219,2.637v21.222l19.781,25.999
			c-0.092-0.925,0.219-1.818,0.219-2.682V143.945z"/>
	</g>
	<g>
		<path fill="#FFFFFF" d="M214.085,424.183c0.335,0.045,0.638,0.129,0.906,0.252s0.525,0.297,0.772,0.521
			c0.246,0.224,0.526,0.526,0.839,0.906l23.229,29.372c-0.09-0.939-0.157-1.852-0.201-2.736c-0.045-0.883-0.067-1.717-0.067-2.5
			v-25.881h10.003v48.908h-5.908c-0.873,0-1.611-0.135-2.215-0.402c-0.604-0.27-1.187-0.761-1.746-1.478l-23.061-29.137
			c0.067,0.851,0.123,1.684,0.168,2.501c0.045,0.817,0.067,1.583,0.067,2.299v26.216h-10.003v-48.908h5.975
			C213.335,424.115,213.75,424.138,214.085,424.183z"/>
		<path fill="#FFFFFF" d="M261.482,424.183c0.335,0.045,0.638,0.129,0.907,0.252c0.268,0.123,0.525,0.297,0.771,0.521
			c0.247,0.224,0.526,0.526,0.839,0.906l23.229,29.372c-0.089-0.939-0.156-1.852-0.201-2.736c-0.045-0.883-0.067-1.717-0.067-2.5
			v-25.881h10.003v48.908h-5.908c-0.873,0-1.611-0.135-2.215-0.402c-0.604-0.27-1.187-0.761-1.746-1.478l-23.061-29.137
			c0.067,0.851,0.123,1.684,0.168,2.501c0.044,0.817,0.067,1.583,0.067,2.299v26.216h-10.003v-48.908h5.975
			C260.732,424.115,261.146,424.138,261.482,424.183z"/>
		<path fill="#FFFFFF" d="M308.124,425.139c0.28,0.146,0.599,0.442,0.957,0.89l27.861,36.252c-0.067-0.581-0.112-1.146-0.134-1.694
			c-0.023-0.548-0.034-1.079-0.034-1.595v-34.071h5.707v48.102h-3.29c-0.515,0-0.946-0.09-1.292-0.269
			c-0.348-0.179-0.688-0.481-1.024-0.906l-27.828-36.219c0.044,0.559,0.078,1.107,0.101,1.645c0.022,0.537,0.034,1.029,0.034,1.477
			v34.272h-5.707v-48.102h3.356C307.414,424.921,307.844,424.994,308.124,425.139z"/>
		<path fill="#FFFFFF" d="M374.907,473.023h-2.652c-0.582,0-1.052-0.09-1.41-0.269c-0.358-0.179-0.593-0.56-0.705-1.142
			l-0.671-3.154c-0.896,0.805-1.768,1.527-2.619,2.164c-0.85,0.639-1.746,1.176-2.685,1.611c-0.94,0.437-1.942,0.768-3.004,0.99
			c-1.063,0.224-2.244,0.336-3.542,0.336c-1.321,0-2.557-0.186-3.709-0.555c-1.153-0.371-2.154-0.928-3.005-1.668
			c-0.85-0.741-1.527-1.679-2.03-2.813c-0.503-1.135-0.755-2.477-0.755-4.025c0-1.347,0.369-2.645,1.108-3.891
			c0.738-1.246,1.93-2.352,3.575-3.317s3.798-1.757,6.462-2.375c2.663-0.617,5.919-0.927,9.768-0.927v-2.668
			c0-2.657-0.565-4.667-1.695-6.029c-1.13-1.362-2.803-2.044-5.018-2.044c-1.455,0-2.68,0.185-3.676,0.554
			c-0.996,0.37-1.858,0.784-2.584,1.242c-0.728,0.459-1.354,0.873-1.88,1.242c-0.526,0.369-1.046,0.554-1.561,0.554
			c-0.403,0-0.755-0.106-1.058-0.319c-0.302-0.212-0.542-0.475-0.722-0.789l-1.074-1.913c1.879-1.813,3.904-3.167,6.075-4.062
			c2.17-0.895,4.577-1.343,7.217-1.343c1.902,0,3.592,0.314,5.069,0.94s2.719,1.499,3.726,2.618s1.768,2.473,2.282,4.062
			s0.772,3.334,0.772,5.236V473.023z M359.398,469.365c1.051,0,2.014-0.106,2.887-0.319c0.873-0.212,1.695-0.515,2.467-0.906
			c0.772-0.392,1.51-0.867,2.215-1.427c0.705-0.559,1.393-1.197,2.064-1.913v-7.017c-2.752,0-5.091,0.176-7.016,0.523
			c-1.925,0.35-3.491,0.807-4.7,1.367c-1.208,0.564-2.086,1.228-2.635,1.993s-0.823,1.62-0.823,2.565c0,0.9,0.146,1.678,0.437,2.33
			c0.291,0.652,0.683,1.188,1.175,1.604s1.074,0.721,1.746,0.912S358.614,469.365,359.398,469.365z"/>
		<path fill="#FFFFFF" d="M375.242,439.02h4.901c0.47,0,0.861,0.123,1.175,0.37c0.313,0.246,0.538,0.537,0.671,0.872l8.627,21.886
			c0.313,0.806,0.559,1.611,0.739,2.417c0.178,0.806,0.346,1.6,0.503,2.383c0.179-0.783,0.369-1.577,0.571-2.383
			c0.201-0.806,0.458-1.611,0.772-2.417l8.727-21.886c0.135-0.357,0.353-0.654,0.655-0.889c0.302-0.235,0.676-0.353,1.125-0.353
			h4.666l-13.863,34.004h-5.404L375.242,439.02z"/>
		<path fill="#FFFFFF" d="M418.544,428.345c0,0.582-0.118,1.125-0.353,1.628s-0.549,0.952-0.94,1.343
			c-0.392,0.392-0.845,0.7-1.359,0.923c-0.515,0.224-1.063,0.336-1.646,0.336c-0.582,0-1.125-0.112-1.628-0.336
			c-0.503-0.223-0.952-0.531-1.342-0.923c-0.392-0.391-0.7-0.839-0.923-1.343c-0.224-0.503-0.336-1.046-0.336-1.628
			s0.112-1.136,0.336-1.662c0.223-0.525,0.531-0.984,0.923-1.376c0.391-0.391,0.839-0.699,1.342-0.923
			c0.503-0.223,1.046-0.335,1.628-0.335c0.582,0,1.13,0.112,1.646,0.335c0.515,0.224,0.967,0.532,1.359,0.923
			c0.391,0.392,0.705,0.851,0.94,1.376C418.427,427.209,418.544,427.763,418.544,428.345z M417.201,439.02v34.004h-5.975V439.02
			H417.201z"/>
		<path fill="#FFFFFF" d="M435.832,438.449c1.477,0,2.858,0.163,4.145,0.487c1.287,0.325,2.456,0.8,3.509,1.427h9.23v2.215
			c0,0.739-0.47,1.208-1.41,1.41l-3.859,0.537c0.76,1.455,1.141,3.078,1.141,4.867c0,1.657-0.318,3.161-0.957,4.515
			c-0.638,1.354-1.521,2.513-2.651,3.475c-1.13,0.963-2.474,1.701-4.027,2.216c-1.557,0.515-3.263,0.772-5.119,0.772
			c-1.59,0-3.089-0.19-4.499-0.571c-0.716,0.462-1.258,0.96-1.628,1.492c-0.368,0.532-0.554,1.054-0.554,1.562
			c0,0.834,0.324,1.464,0.974,1.892c0.648,0.428,1.511,0.735,2.584,0.92c1.075,0.186,2.294,0.277,3.66,0.277
			c1.364,0,2.757,0,4.179,0c1.421,0,2.813,0.126,4.18,0.374c1.363,0.25,2.584,0.656,3.658,1.223s1.935,1.35,2.584,2.346
			s0.974,2.288,0.974,3.873c0,1.473-0.363,2.9-1.091,4.281c-0.728,1.382-1.773,2.611-3.138,3.688
			c-1.366,1.076-3.033,1.937-5.002,2.583c-1.97,0.646-4.196,0.968-6.68,0.968c-2.484,0-4.66-0.246-6.529-0.738
			c-1.868-0.494-3.418-1.154-4.649-1.982c-1.231-0.83-2.153-1.787-2.769-2.874s-0.923-2.224-0.923-3.411
			c0-1.68,0.532-3.107,1.595-4.283c1.063-1.176,2.523-2.112,4.381-2.807c-0.963-0.446-1.729-1.044-2.299-1.792
			c-0.571-0.749-0.856-1.749-0.856-3.001c0-0.49,0.089-0.998,0.269-1.524c0.178-0.524,0.453-1.044,0.822-1.558
			c0.369-0.514,0.822-1.006,1.359-1.476c0.537-0.469,1.163-0.882,1.88-1.239c-1.679-0.939-2.994-2.188-3.944-3.743
			c-0.951-1.556-1.427-3.374-1.427-5.455c0-1.655,0.319-3.16,0.957-4.515c0.638-1.354,1.527-2.506,2.668-3.458
			c1.142-0.951,2.502-1.684,4.078-2.199C432.223,438.707,433.951,438.449,435.832,438.449z M446.439,474.749
			c0-0.867-0.235-1.563-0.705-2.088s-1.108-0.931-1.914-1.216c-0.805-0.285-1.734-0.496-2.785-0.633
			c-1.053-0.137-2.16-0.205-3.324-0.205s-2.35,0-3.558,0c-1.209,0-2.362-0.152-3.457-0.454c-1.276,0.605-2.312,1.346-3.105,2.22
			c-0.795,0.873-1.191,1.916-1.191,3.126c0,0.762,0.195,1.474,0.587,2.135s0.99,1.232,1.796,1.715
			c0.806,0.481,1.818,0.862,3.038,1.144c1.22,0.279,2.657,0.42,4.313,0.42c1.611,0,3.055-0.148,4.33-0.445s2.354-0.719,3.239-1.267
			c0.884-0.548,1.562-1.198,2.031-1.951C446.204,476.495,446.439,475.662,446.439,474.749z M435.832,456.408
			c1.208,0,2.276-0.168,3.205-0.504s1.706-0.807,2.333-1.41c0.626-0.604,1.096-1.326,1.41-2.165c0.313-0.839,0.47-1.763,0.47-2.77
			c0-2.081-0.633-3.737-1.896-4.968c-1.265-1.23-3.105-1.847-5.521-1.847c-2.396,0-4.225,0.616-5.488,1.847
			c-1.265,1.231-1.896,2.887-1.896,4.968c0,1.007,0.162,1.931,0.486,2.77c0.323,0.839,0.8,1.562,1.427,2.165
			c0.626,0.604,1.398,1.074,2.316,1.41C433.594,456.24,434.646,456.408,435.832,456.408z"/>
		<path fill="#FFFFFF" d="M480.307,473.023h-2.651c-0.583,0-1.053-0.09-1.41-0.269c-0.358-0.179-0.593-0.56-0.705-1.142
			l-0.671-3.154c-0.896,0.805-1.769,1.527-2.618,2.164c-0.852,0.639-1.745,1.176-2.686,1.611c-0.94,0.437-1.941,0.768-3.005,0.99
			c-1.063,0.224-2.243,0.336-3.541,0.336c-1.32,0-2.557-0.186-3.709-0.555c-1.153-0.371-2.154-0.928-3.005-1.668
			c-0.851-0.741-1.526-1.679-2.03-2.813c-0.504-1.135-0.756-2.477-0.756-4.025c0-1.347,0.37-2.645,1.108-3.891
			s1.931-2.352,3.575-3.317s3.798-1.757,6.461-2.375c2.664-0.617,5.919-0.927,9.769-0.927v-2.668c0-2.657-0.565-4.667-1.695-6.029
			c-1.13-1.362-2.803-2.044-5.019-2.044c-1.455,0-2.68,0.185-3.676,0.554c-0.995,0.37-1.857,0.784-2.584,1.242
			c-0.728,0.459-1.354,0.873-1.88,1.242c-0.525,0.369-1.047,0.554-1.562,0.554c-0.402,0-0.755-0.106-1.057-0.319
			c-0.303-0.212-0.543-0.475-0.723-0.789l-1.073-1.913c1.88-1.813,3.904-3.167,6.075-4.062s4.577-1.343,7.218-1.343
			c1.902,0,3.591,0.314,5.068,0.94c1.477,0.626,2.719,1.499,3.726,2.618s1.768,2.473,2.283,4.062
			c0.515,1.589,0.771,3.334,0.771,5.236V473.023z M464.799,469.365c1.052,0,2.015-0.106,2.887-0.319
			c0.873-0.212,1.695-0.515,2.468-0.906c0.771-0.392,1.51-0.867,2.216-1.427c0.704-0.559,1.392-1.197,2.063-1.913v-7.017
			c-2.752,0-5.091,0.176-7.016,0.523c-1.925,0.35-3.491,0.807-4.699,1.367c-1.209,0.564-2.087,1.228-2.636,1.993
			c-0.548,0.766-0.822,1.62-0.822,2.565c0,0.9,0.146,1.678,0.437,2.33s0.683,1.188,1.176,1.604c0.491,0.416,1.073,0.721,1.745,0.912
			C463.288,469.27,464.015,469.365,464.799,469.365z"/>
		<path fill="#FFFFFF" d="M496.318,473.561c-2.686,0-4.75-0.75-6.193-2.249s-2.165-3.659-2.165-6.479v-20.812h-4.095
			c-0.359,0-0.66-0.106-0.906-0.319c-0.247-0.212-0.37-0.542-0.37-0.99v-2.383l5.572-0.705l1.377-10.507
			c0.044-0.336,0.188-0.609,0.436-0.823c0.246-0.212,0.56-0.319,0.94-0.319h3.021v11.715h9.735v4.33h-9.735v20.409
			c0,1.434,0.348,2.496,1.041,3.189s1.589,1.041,2.686,1.041c0.626,0,1.169-0.084,1.628-0.252c0.458-0.168,0.855-0.353,1.192-0.555
			c0.335-0.201,0.62-0.385,0.855-0.554c0.235-0.167,0.441-0.251,0.621-0.251c0.313,0,0.592,0.19,0.839,0.57l1.745,2.854
			c-1.029,0.963-2.271,1.717-3.726,2.266C499.361,473.286,497.862,473.561,496.318,473.561z"/>
		<path fill="#FFFFFF" d="M515.686,428.345c0,0.582-0.117,1.125-0.352,1.628c-0.235,0.503-0.55,0.952-0.94,1.343
			c-0.393,0.392-0.845,0.7-1.359,0.923c-0.516,0.224-1.063,0.336-1.646,0.336s-1.124-0.112-1.628-0.336
			c-0.504-0.223-0.951-0.531-1.342-0.923c-0.393-0.391-0.7-0.839-0.924-1.343s-0.336-1.046-0.336-1.628s0.112-1.136,0.336-1.662
			c0.224-0.525,0.531-0.984,0.924-1.376c0.391-0.391,0.838-0.699,1.342-0.923c0.504-0.223,1.046-0.335,1.628-0.335
			s1.13,0.112,1.646,0.335c0.515,0.224,0.967,0.532,1.359,0.923c0.391,0.392,0.705,0.851,0.94,1.376
			C515.568,427.209,515.686,427.763,515.686,428.345z M514.343,439.02v34.004h-5.976V439.02H514.343z"/>
		<path fill="#FFFFFF" d="M535.289,438.482c2.483,0,4.728,0.415,6.73,1.242c2.003,0.828,3.704,2.003,5.103,3.524
			c1.398,1.522,2.472,3.363,3.223,5.522c0.749,2.16,1.124,4.571,1.124,7.234c0,2.685-0.375,5.103-1.124,7.251
			c-0.751,2.148-1.824,3.983-3.223,5.505c-1.398,1.522-3.1,2.69-5.103,3.507c-2.003,0.817-4.247,1.226-6.73,1.226
			c-2.484,0-4.728-0.408-6.73-1.226c-2.003-0.816-3.709-1.984-5.119-3.507c-1.409-1.521-2.495-3.356-3.255-5.505
			c-0.762-2.148-1.143-4.566-1.143-7.251c0-2.663,0.381-5.074,1.143-7.234c0.76-2.159,1.846-4,3.255-5.522
			c1.41-1.521,3.116-2.696,5.119-3.524C530.562,438.897,532.805,438.482,535.289,438.482z M535.289,468.828
			c3.357,0,5.863-1.125,7.52-3.374c1.655-2.249,2.484-5.388,2.484-9.415c0-4.051-0.829-7.207-2.484-9.467
			c-1.656-2.26-4.162-3.39-7.52-3.39c-1.701,0-3.178,0.291-4.431,0.873s-2.3,1.421-3.139,2.518c-0.839,1.097-1.466,2.445-1.88,4.045
			s-0.621,3.407-0.621,5.422c0,2.014,0.207,3.814,0.621,5.404c0.414,1.588,1.041,2.926,1.88,4.011s1.886,1.919,3.139,2.501
			S533.588,468.828,535.289,468.828z"/>
		<path fill="#FFFFFF" d="M555.496,473.023V439.02h3.559c0.85,0,1.387,0.415,1.611,1.242l0.47,3.693
			c1.477-1.634,3.127-2.954,4.952-3.961c1.822-1.007,3.933-1.511,6.327-1.511c1.856,0,3.496,0.308,4.917,0.923
			c1.422,0.616,2.607,1.489,3.559,2.619c0.951,1.13,1.673,2.49,2.164,4.078c0.493,1.589,0.739,3.346,0.739,5.27v21.651h-5.975
			v-21.651c0-2.573-0.587-4.57-1.763-5.991c-1.175-1.421-2.971-2.132-5.387-2.132c-1.769,0-3.42,0.426-4.952,1.275
			c-1.532,0.851-2.948,2.003-4.246,3.458v25.042H555.496z"/>
		<path fill="#FFFFFF" d="M590.407,473.023v-48.102h15.341c2.953,0,5.5,0.291,7.637,0.873s3.894,1.41,5.27,2.484
			c1.377,1.074,2.395,2.389,3.055,3.944s0.991,3.306,0.991,5.253c0,1.187-0.185,2.328-0.555,3.424
			c-0.369,1.097-0.929,2.115-1.679,3.055s-1.689,1.779-2.819,2.518c-1.13,0.738-2.456,1.342-3.978,1.813
			c3.513,0.694,6.164,1.958,7.955,3.794c1.791,1.834,2.686,4.252,2.686,7.25c0,2.036-0.375,3.894-1.124,5.572
			c-0.751,1.678-1.846,3.121-3.29,4.33c-1.443,1.209-3.211,2.143-5.304,2.803c-2.092,0.66-4.48,0.99-7.167,0.99H590.407z
			 M596.92,446.472h8.593c1.835,0,3.424-0.202,4.767-0.604s2.456-0.962,3.341-1.678c0.883-0.716,1.537-1.583,1.963-2.602
			c0.425-1.018,0.638-2.131,0.638-3.34c0-2.82-0.851-4.889-2.551-6.21c-1.701-1.32-4.342-1.981-7.922-1.981h-8.828V446.472z
			 M596.92,451.104v16.75h10.406c1.856,0,3.451-0.212,4.783-0.637c1.331-0.426,2.428-1.024,3.289-1.796
			c0.861-0.772,1.494-1.69,1.896-2.753c0.403-1.063,0.604-2.232,0.604-3.508c0-2.484-0.879-4.447-2.636-5.891
			c-1.756-1.443-4.413-2.166-7.972-2.166H596.92z"/>
		<path fill="#FFFFFF" d="M654.521,473.023h-2.652c-0.582,0-1.052-0.09-1.41-0.269c-0.357-0.179-0.593-0.56-0.705-1.142
			l-0.671-3.154c-0.895,0.805-1.769,1.527-2.618,2.164c-0.851,0.639-1.745,1.176-2.686,1.611c-0.94,0.437-1.941,0.768-3.004,0.99
			c-1.063,0.224-2.244,0.336-3.542,0.336c-1.32,0-2.557-0.186-3.708-0.555c-1.154-0.371-2.155-0.928-3.005-1.668
			c-0.851-0.741-1.527-1.679-2.031-2.813c-0.503-1.135-0.756-2.477-0.756-4.025c0-1.347,0.37-2.645,1.108-3.891
			s1.931-2.352,3.575-3.317s3.798-1.757,6.461-2.375c2.664-0.617,5.919-0.927,9.77-0.927v-2.668c0-2.657-0.566-4.667-1.696-6.029
			c-1.13-1.362-2.803-2.044-5.018-2.044c-1.455,0-2.68,0.185-3.677,0.554c-0.995,0.37-1.857,0.784-2.584,1.242
			c-0.728,0.459-1.354,0.873-1.88,1.242c-0.525,0.369-1.047,0.554-1.561,0.554c-0.403,0-0.755-0.106-1.058-0.319
			s-0.543-0.475-0.722-0.789l-1.074-1.913c1.88-1.813,3.905-3.167,6.075-4.062c2.171-0.895,4.577-1.343,7.218-1.343
			c1.902,0,3.591,0.314,5.068,0.94c1.477,0.626,2.719,1.499,3.726,2.618c1.008,1.119,1.768,2.473,2.283,4.062
			c0.515,1.589,0.772,3.334,0.772,5.236V473.023z M639.012,469.365c1.052,0,2.015-0.106,2.887-0.319
			c0.873-0.212,1.695-0.515,2.468-0.906c0.771-0.392,1.51-0.867,2.216-1.427c0.704-0.559,1.392-1.197,2.064-1.913v-7.017
			c-2.753,0-5.092,0.176-7.017,0.523c-1.925,0.35-3.491,0.807-4.699,1.367c-1.208,0.564-2.087,1.228-2.636,1.993
			c-0.548,0.766-0.822,1.62-0.822,2.565c0,0.9,0.146,1.678,0.437,2.33c0.291,0.652,0.683,1.188,1.176,1.604
			c0.491,0.416,1.073,0.721,1.745,0.912S638.229,469.365,639.012,469.365z"/>
		<path fill="#FFFFFF" d="M660.226,473.023V439.02h3.424c0.649,0,1.097,0.123,1.344,0.37c0.245,0.246,0.413,0.671,0.503,1.275
			l0.402,5.304c1.164-2.372,2.602-4.224,4.313-5.555s3.721-1.998,6.025-1.998c0.94,0,1.79,0.106,2.552,0.319
			c0.76,0.213,1.465,0.509,2.114,0.89l-0.772,4.464c-0.156,0.56-0.502,0.84-1.039,0.84c-0.314,0-0.796-0.106-1.443-0.319
			c-0.65-0.212-1.557-0.319-2.72-0.319c-2.081,0-3.821,0.604-5.22,1.813c-1.399,1.208-2.568,2.966-3.508,5.27v21.651H660.226z"/>
	</g>
	<g>
		<path fill="#FFFFFF" d="M722.805,507.791c0.102,0.014,0.193,0.039,0.275,0.076s0.16,0.091,0.234,0.158
			c0.074,0.068,0.16,0.16,0.256,0.275l7.064,8.934c-0.027-0.285-0.047-0.563-0.061-0.832c-0.014-0.268-0.021-0.522-0.021-0.76
			v-7.872h3.043v14.876h-1.797c-0.266,0-0.488-0.041-0.674-0.123c-0.184-0.082-0.361-0.231-0.531-0.449l-7.014-8.861
			c0.021,0.258,0.039,0.512,0.051,0.76c0.016,0.248,0.021,0.48,0.021,0.699v7.975h-3.043v-14.876h1.816
			C722.576,507.771,722.701,507.777,722.805,507.791z"/>
		<path fill="#FFFFFF" d="M737.221,507.791c0.102,0.014,0.193,0.039,0.275,0.076c0.08,0.037,0.16,0.091,0.234,0.158
			c0.074,0.068,0.162,0.16,0.256,0.275l7.064,8.934c-0.027-0.285-0.049-0.563-0.061-0.832c-0.014-0.268-0.021-0.522-0.021-0.76
			v-7.872h3.043v14.876h-1.797c-0.266,0-0.49-0.041-0.674-0.123s-0.361-0.231-0.531-0.449l-7.014-8.861
			c0.021,0.258,0.037,0.512,0.051,0.76s0.021,0.48,0.021,0.699v7.975h-3.043v-14.876h1.818
			C736.992,507.771,737.119,507.777,737.221,507.791z"/>
		<path fill="#FFFFFF" d="M751.406,508.082c0.086,0.044,0.184,0.135,0.291,0.271l8.475,11.026c-0.021-0.177-0.033-0.35-0.041-0.516
			c-0.006-0.167-0.01-0.328-0.01-0.485v-10.362h1.734v14.631h-1c-0.156,0-0.287-0.027-0.393-0.082s-0.209-0.146-0.313-0.276
			l-8.463-11.016c0.014,0.171,0.023,0.337,0.029,0.501c0.008,0.162,0.01,0.313,0.01,0.448v10.425h-1.732v-14.631h1.018
			C751.189,508.016,751.32,508.039,751.406,508.082z"/>
		<path fill="#FFFFFF" d="M771.719,522.646h-0.807c-0.178,0-0.32-0.027-0.428-0.082c-0.111-0.055-0.182-0.171-0.215-0.348
			l-0.205-0.959c-0.273,0.244-0.539,0.464-0.797,0.658c-0.258,0.193-0.531,0.357-0.816,0.49s-0.59,0.232-0.914,0.301
			c-0.322,0.068-0.682,0.103-1.076,0.103c-0.402,0-0.779-0.057-1.129-0.169c-0.352-0.113-0.654-0.282-0.914-0.508
			c-0.258-0.226-0.465-0.51-0.617-0.855c-0.152-0.345-0.229-0.752-0.229-1.225c0-0.408,0.109-0.804,0.336-1.183
			c0.225-0.38,0.586-0.715,1.086-1.009c0.504-0.294,1.156-0.534,1.967-0.723c0.809-0.188,1.801-0.281,2.971-0.281v-0.813
			c0-0.807-0.172-1.419-0.516-1.833s-0.854-0.622-1.525-0.622c-0.443,0-0.816,0.057-1.119,0.168
			c-0.301,0.113-0.564,0.238-0.785,0.379c-0.223,0.139-0.414,0.265-0.572,0.377c-0.16,0.113-0.318,0.169-0.477,0.169
			c-0.121,0-0.229-0.032-0.32-0.097c-0.09-0.064-0.164-0.146-0.219-0.24l-0.328-0.582c0.572-0.551,1.189-0.963,1.85-1.235
			s1.391-0.409,2.195-0.409c0.578,0,1.092,0.096,1.541,0.287c0.449,0.189,0.828,0.455,1.133,0.796
			c0.307,0.341,0.539,0.753,0.693,1.235c0.156,0.483,0.236,1.014,0.236,1.592V522.646z M767.002,521.533
			c0.32,0,0.613-0.032,0.879-0.098c0.264-0.064,0.514-0.156,0.748-0.275c0.236-0.119,0.461-0.264,0.676-0.434
			s0.422-0.365,0.627-0.582v-2.134c-0.838,0-1.549,0.053-2.133,0.159c-0.586,0.106-1.063,0.245-1.43,0.416
			c-0.369,0.171-0.635,0.373-0.801,0.605c-0.168,0.233-0.252,0.494-0.252,0.781c0,0.273,0.045,0.51,0.133,0.708
			c0.09,0.198,0.207,0.361,0.357,0.487c0.15,0.127,0.326,0.22,0.531,0.277C766.543,521.504,766.764,521.533,767.002,521.533z"/>
		<path fill="#FFFFFF" d="M771.82,512.305h1.492c0.141,0,0.262,0.036,0.355,0.111c0.096,0.074,0.162,0.163,0.205,0.266l2.623,6.656
			c0.096,0.245,0.17,0.49,0.225,0.734c0.055,0.246,0.105,0.487,0.154,0.727c0.055-0.239,0.111-0.48,0.172-0.727
			c0.063-0.244,0.141-0.489,0.234-0.734l2.656-6.656c0.041-0.109,0.107-0.199,0.197-0.27c0.094-0.072,0.207-0.107,0.344-0.107h1.418
			l-4.217,10.342h-1.643L771.82,512.305z"/>
		<path fill="#FFFFFF" d="M784.99,509.057c0,0.178-0.035,0.343-0.105,0.496c-0.072,0.152-0.166,0.289-0.287,0.408
			c-0.119,0.118-0.258,0.213-0.414,0.28c-0.154,0.068-0.322,0.103-0.5,0.103s-0.342-0.034-0.494-0.103
			c-0.152-0.067-0.291-0.162-0.41-0.28c-0.117-0.119-0.211-0.256-0.279-0.408c-0.068-0.153-0.102-0.318-0.102-0.496
			c0-0.177,0.033-0.345,0.102-0.506c0.068-0.159,0.162-0.298,0.279-0.418c0.119-0.119,0.258-0.213,0.41-0.28
			s0.316-0.103,0.494-0.103s0.346,0.035,0.5,0.103c0.156,0.067,0.295,0.161,0.414,0.28c0.121,0.12,0.215,0.259,0.287,0.418
			C784.955,508.712,784.99,508.88,784.99,509.057z M784.582,512.305v10.342h-1.816v-10.342H784.582z"/>
		<path fill="#FFFFFF" d="M790.25,512.13c0.447,0,0.869,0.05,1.26,0.148c0.393,0.099,0.746,0.243,1.068,0.435h2.807v0.673
			c0,0.226-0.143,0.368-0.43,0.429l-1.174,0.163c0.23,0.442,0.348,0.937,0.348,1.481c0,0.504-0.098,0.961-0.291,1.372
			c-0.195,0.412-0.463,0.765-0.809,1.058c-0.342,0.292-0.75,0.517-1.225,0.674c-0.473,0.156-0.99,0.234-1.555,0.234
			c-0.484,0-0.941-0.058-1.369-0.174c-0.219,0.141-0.383,0.292-0.496,0.454c-0.111,0.161-0.168,0.32-0.168,0.475
			c0,0.254,0.098,0.445,0.297,0.575c0.197,0.131,0.459,0.224,0.785,0.279c0.326,0.058,0.697,0.085,1.113,0.085
			c0.414,0,0.838,0,1.27,0c0.434,0,0.857,0.038,1.273,0.114c0.414,0.076,0.785,0.199,1.111,0.371
			c0.328,0.174,0.588,0.411,0.787,0.715c0.197,0.303,0.295,0.695,0.295,1.178c0,0.447-0.109,0.881-0.332,1.303
			c-0.221,0.42-0.537,0.793-0.953,1.121c-0.416,0.326-0.924,0.588-1.521,0.785s-1.277,0.295-2.031,0.295
			c-0.758,0-1.418-0.076-1.986-0.226s-1.041-0.351-1.414-0.603s-0.654-0.544-0.842-0.875c-0.188-0.33-0.281-0.676-0.281-1.037
			c0-0.511,0.162-0.945,0.484-1.303s0.768-0.643,1.332-0.854c-0.291-0.136-0.525-0.317-0.697-0.545
			c-0.176-0.227-0.264-0.531-0.264-0.912c0-0.149,0.029-0.305,0.084-0.465c0.055-0.159,0.137-0.316,0.25-0.474
			c0.113-0.156,0.25-0.306,0.414-0.448c0.162-0.143,0.352-0.268,0.572-0.377c-0.512-0.285-0.912-0.666-1.201-1.139
			s-0.434-1.025-0.434-1.658c0-0.504,0.096-0.962,0.289-1.374c0.195-0.411,0.467-0.763,0.813-1.052s0.762-0.512,1.24-0.668
			C789.152,512.209,789.676,512.13,790.25,512.13z M793.475,523.17c0-0.264-0.072-0.475-0.213-0.635
			c-0.145-0.159-0.338-0.283-0.584-0.369c-0.244-0.087-0.527-0.15-0.846-0.193c-0.32-0.041-0.656-0.063-1.012-0.063
			c-0.354,0-0.715,0-1.082,0s-0.719-0.045-1.051-0.137c-0.389,0.184-0.703,0.408-0.945,0.674c-0.242,0.267-0.361,0.584-0.361,0.951
			c0,0.232,0.059,0.448,0.178,0.649c0.119,0.202,0.301,0.376,0.547,0.521c0.244,0.146,0.553,0.263,0.924,0.349
			c0.371,0.084,0.809,0.127,1.311,0.127c0.49,0,0.93-0.045,1.318-0.135c0.387-0.092,0.715-0.219,0.984-0.387
			c0.268-0.166,0.475-0.363,0.619-0.592C793.402,523.701,793.475,523.448,793.475,523.17z M790.25,517.593
			c0.367,0,0.691-0.052,0.975-0.154c0.281-0.103,0.52-0.245,0.709-0.429s0.332-0.403,0.428-0.658
			c0.096-0.254,0.143-0.535,0.143-0.842c0-0.634-0.191-1.137-0.576-1.512c-0.383-0.373-0.945-0.561-1.678-0.561
			c-0.73,0-1.287,0.188-1.672,0.561c-0.385,0.375-0.576,0.878-0.576,1.512c0,0.307,0.051,0.588,0.148,0.842
			c0.098,0.255,0.242,0.475,0.434,0.658s0.426,0.326,0.705,0.429S789.889,517.593,790.25,517.593z"/>
		<path fill="#FFFFFF" d="M803.775,522.646h-0.805c-0.178,0-0.322-0.027-0.432-0.082c-0.107-0.055-0.18-0.171-0.213-0.348
			l-0.205-0.959c-0.271,0.244-0.537,0.464-0.795,0.658c-0.26,0.193-0.531,0.357-0.818,0.49c-0.285,0.133-0.59,0.232-0.914,0.301
			c-0.322,0.068-0.68,0.103-1.074,0.103c-0.404,0-0.779-0.057-1.131-0.169c-0.35-0.113-0.654-0.282-0.912-0.508
			s-0.465-0.51-0.617-0.855c-0.154-0.345-0.23-0.752-0.23-1.225c0-0.408,0.111-0.804,0.336-1.183
			c0.225-0.38,0.588-0.715,1.088-1.009c0.502-0.294,1.154-0.534,1.965-0.723c0.813-0.188,1.801-0.281,2.973-0.281v-0.813
			c0-0.807-0.172-1.419-0.516-1.833s-0.854-0.622-1.525-0.622c-0.443,0-0.816,0.057-1.121,0.168
			c-0.303,0.113-0.564,0.238-0.785,0.379c-0.221,0.139-0.41,0.265-0.57,0.377c-0.16,0.113-0.32,0.169-0.477,0.169
			c-0.121,0-0.229-0.032-0.322-0.097c-0.092-0.064-0.162-0.146-0.219-0.24l-0.326-0.582c0.57-0.551,1.188-0.963,1.848-1.235
			s1.393-0.409,2.195-0.409c0.578,0,1.092,0.096,1.541,0.287c0.451,0.189,0.826,0.455,1.135,0.796
			c0.305,0.341,0.537,0.753,0.693,1.235c0.156,0.483,0.234,1.014,0.234,1.592V522.646z M799.059,521.533
			c0.32,0,0.613-0.032,0.879-0.098c0.264-0.064,0.516-0.156,0.75-0.275s0.459-0.264,0.674-0.434s0.424-0.365,0.629-0.582v-2.134
			c-0.838,0-1.549,0.053-2.135,0.159s-1.063,0.245-1.43,0.416s-0.635,0.373-0.801,0.605c-0.168,0.233-0.252,0.494-0.252,0.781
			c0,0.273,0.045,0.51,0.135,0.708c0.088,0.198,0.207,0.361,0.357,0.487c0.148,0.127,0.326,0.22,0.531,0.277
			C798.6,521.504,798.82,521.533,799.059,521.533z"/>
		<path fill="#FFFFFF" d="M808.646,522.81c-0.816,0-1.447-0.228-1.885-0.685c-0.438-0.456-0.658-1.113-0.658-1.97v-6.331h-1.246
			c-0.109,0-0.201-0.031-0.275-0.097c-0.074-0.064-0.111-0.165-0.111-0.301v-0.726l1.693-0.214l0.42-3.195
			c0.014-0.103,0.059-0.187,0.131-0.25c0.076-0.065,0.172-0.098,0.287-0.098h0.92v3.563h2.959v1.316h-2.959v6.208
			c0,0.436,0.104,0.759,0.314,0.97s0.486,0.316,0.818,0.316c0.189,0,0.355-0.025,0.496-0.076c0.137-0.052,0.258-0.107,0.361-0.168
			c0.1-0.063,0.188-0.118,0.262-0.168c0.07-0.053,0.133-0.078,0.188-0.078c0.096,0,0.18,0.059,0.256,0.174l0.529,0.868
			c-0.313,0.292-0.689,0.522-1.135,0.688C809.572,522.727,809.115,522.81,808.646,522.81z"/>
		<path fill="#FFFFFF" d="M814.537,509.057c0,0.178-0.037,0.343-0.107,0.496c-0.072,0.152-0.168,0.289-0.287,0.408
			c-0.119,0.118-0.256,0.213-0.412,0.28c-0.156,0.068-0.324,0.103-0.502,0.103c-0.176,0-0.342-0.034-0.494-0.103
			c-0.152-0.067-0.291-0.162-0.408-0.28c-0.119-0.119-0.213-0.256-0.279-0.408c-0.07-0.153-0.104-0.318-0.104-0.496
			c0-0.177,0.033-0.345,0.104-0.506c0.066-0.159,0.16-0.298,0.279-0.418c0.117-0.119,0.256-0.213,0.408-0.28
			s0.318-0.103,0.494-0.103c0.178,0,0.346,0.035,0.502,0.103s0.293,0.161,0.412,0.28c0.119,0.12,0.215,0.259,0.287,0.418
			C814.5,508.712,814.537,508.88,814.537,509.057z M814.127,512.305v10.342h-1.814v-10.342H814.127z"/>
		<path fill="#FFFFFF" d="M820.498,512.141c0.756,0,1.438,0.125,2.049,0.377c0.607,0.252,1.125,0.609,1.551,1.072
			s0.752,1.022,0.98,1.68c0.227,0.656,0.342,1.391,0.342,2.2c0,0.817-0.115,1.552-0.342,2.205c-0.229,0.653-0.555,1.212-0.98,1.675
			s-0.943,0.818-1.551,1.066c-0.611,0.248-1.293,0.373-2.049,0.373c-0.754,0-1.438-0.125-2.047-0.373s-1.129-0.604-1.557-1.066
			c-0.43-0.463-0.758-1.021-0.99-1.675c-0.23-0.653-0.348-1.388-0.348-2.205c0-0.81,0.117-1.544,0.348-2.2
			c0.232-0.657,0.561-1.217,0.99-1.68c0.428-0.463,0.947-0.82,1.557-1.072S819.744,512.141,820.498,512.141z M820.498,521.369
			c1.021,0,1.783-0.342,2.287-1.025s0.756-1.639,0.756-2.863c0-1.232-0.252-2.192-0.756-2.881c-0.504-0.686-1.266-1.029-2.287-1.029
			c-0.518,0-0.965,0.088-1.348,0.265c-0.381,0.177-0.699,0.433-0.955,0.765c-0.256,0.334-0.445,0.745-0.57,1.231
			c-0.127,0.487-0.189,1.036-0.189,1.649c0,0.612,0.063,1.16,0.189,1.643c0.125,0.484,0.314,0.891,0.57,1.221
			s0.574,0.584,0.955,0.76C819.533,521.281,819.98,521.369,820.498,521.369z"/>
		<path fill="#FFFFFF" d="M826.645,522.646v-10.342h1.082c0.26,0,0.422,0.125,0.49,0.377l0.143,1.123
			c0.449-0.497,0.951-0.898,1.506-1.205s1.197-0.459,1.924-0.459c0.564,0,1.064,0.093,1.498,0.279
			c0.432,0.188,0.791,0.453,1.082,0.798c0.289,0.343,0.51,0.757,0.656,1.24c0.152,0.483,0.227,1.017,0.227,1.603v6.586h-1.818
			v-6.586c0-0.783-0.178-1.39-0.535-1.822c-0.359-0.432-0.904-0.648-1.639-0.648c-0.537,0-1.041,0.13-1.508,0.388
			c-0.465,0.259-0.895,0.609-1.289,1.052v7.617H826.645z"/>
		<path fill="#FFFFFF" d="M837.262,522.646v-14.631h4.666c0.9,0,1.674,0.088,2.324,0.265c0.648,0.178,1.184,0.43,1.604,0.757
			c0.418,0.326,0.727,0.727,0.928,1.199c0.199,0.473,0.301,1.006,0.301,1.598c0,0.361-0.055,0.708-0.168,1.041
			c-0.111,0.334-0.283,0.644-0.51,0.93c-0.229,0.285-0.514,0.541-0.857,0.766s-0.748,0.408-1.211,0.551
			c1.068,0.211,1.875,0.597,2.42,1.154c0.545,0.559,0.816,1.293,0.816,2.205c0,0.619-0.113,1.184-0.342,1.694s-0.561,0.95-1,1.317
			s-0.977,0.651-1.613,0.853c-0.637,0.2-1.363,0.302-2.18,0.302H837.262z M839.244,514.57h2.613c0.559,0,1.041-0.062,1.449-0.184
			c0.408-0.123,0.748-0.293,1.016-0.511c0.27-0.218,0.469-0.481,0.598-0.792c0.129-0.309,0.193-0.648,0.193-1.016
			c0-0.857-0.26-1.486-0.775-1.889c-0.518-0.4-1.32-0.603-2.41-0.603h-2.684V514.57z M839.244,515.979v5.095h3.164
			c0.566,0,1.051-0.065,1.455-0.194c0.406-0.13,0.738-0.312,1-0.546c0.262-0.235,0.455-0.514,0.576-0.838
			c0.123-0.324,0.184-0.68,0.184-1.066c0-0.756-0.266-1.354-0.799-1.792c-0.537-0.439-1.344-0.658-2.426-0.658H839.244z"/>
		<path fill="#FFFFFF" d="M856.764,522.646h-0.809c-0.176,0-0.318-0.027-0.428-0.082s-0.18-0.171-0.215-0.348l-0.203-0.959
			c-0.273,0.244-0.539,0.464-0.797,0.658c-0.258,0.193-0.531,0.357-0.816,0.49c-0.287,0.133-0.592,0.232-0.914,0.301
			c-0.324,0.068-0.684,0.103-1.078,0.103c-0.4,0-0.775-0.057-1.127-0.169c-0.352-0.113-0.656-0.282-0.914-0.508
			c-0.26-0.226-0.465-0.51-0.617-0.855c-0.152-0.345-0.23-0.752-0.23-1.225c0-0.408,0.111-0.804,0.338-1.183
			c0.225-0.38,0.586-0.715,1.088-1.009c0.498-0.294,1.154-0.534,1.965-0.723c0.809-0.188,1.799-0.281,2.971-0.281v-0.813
			c0-0.807-0.172-1.419-0.518-1.833c-0.344-0.414-0.852-0.622-1.525-0.622c-0.441,0-0.814,0.057-1.117,0.168
			c-0.303,0.113-0.564,0.238-0.787,0.379c-0.221,0.139-0.412,0.265-0.57,0.377c-0.162,0.113-0.318,0.169-0.477,0.169
			c-0.121,0-0.229-0.032-0.32-0.097s-0.166-0.146-0.221-0.24l-0.326-0.582c0.572-0.551,1.188-0.963,1.848-1.235
			c0.662-0.272,1.393-0.409,2.193-0.409c0.58,0,1.096,0.096,1.545,0.287c0.449,0.189,0.826,0.455,1.133,0.796
			s0.537,0.753,0.693,1.235c0.158,0.483,0.236,1.014,0.236,1.592V522.646z M852.045,521.533c0.32,0,0.613-0.032,0.879-0.098
			c0.266-0.064,0.514-0.156,0.75-0.275s0.459-0.264,0.674-0.434s0.424-0.365,0.629-0.582v-2.134c-0.838,0-1.549,0.053-2.135,0.159
			s-1.063,0.245-1.43,0.416s-0.635,0.373-0.801,0.605c-0.168,0.233-0.25,0.494-0.25,0.781c0,0.273,0.043,0.51,0.131,0.708
			c0.09,0.198,0.209,0.361,0.359,0.487c0.148,0.127,0.328,0.22,0.531,0.277C851.586,521.504,851.807,521.533,852.045,521.533z"/>
		<path fill="#FFFFFF" d="M858.5,522.646v-10.342h1.039c0.197,0,0.334,0.036,0.41,0.111c0.072,0.074,0.125,0.204,0.15,0.388
			l0.123,1.613c0.355-0.721,0.793-1.284,1.313-1.69c0.521-0.404,1.131-0.607,1.832-0.607c0.287,0,0.545,0.033,0.777,0.098
			c0.23,0.064,0.445,0.154,0.643,0.271l-0.236,1.358c-0.045,0.17-0.15,0.254-0.314,0.254c-0.096,0-0.242-0.031-0.439-0.096
			c-0.197-0.065-0.473-0.098-0.828-0.098c-0.631,0-1.162,0.184-1.586,0.552c-0.426,0.367-0.781,0.901-1.068,1.603v6.586H858.5z"/>
	</g>
	<g>
		<path fill="#FFFFFF" d="M114.326,372.717c-41.834,0-75.746,33.913-75.746,75.747c0,41.833,33.912,75.746,75.746,75.746
			c41.833,0,75.746-33.912,75.746-75.746C190.072,406.629,156.16,372.717,114.326,372.717z M159.5,489.5h-2.511
			c-0.878,0-2.03-0.643-2.564-1.406L130.5,456.492V489.5h-1.915c-0.878,0-2.013-0.643-2.547-1.406L101.5,455.652V489.5h-5v-40.65
			L73.175,417.51c0.114,1.146,0.325,2.233,0.325,3.264V489.5h-5v-81h3.22c0.534,0,0.904-0.209,1.21-0.076
			c0.305,0.134,0.299,0.239,0.643,0.698L96.5,440.23V408.5h3.624c0.534,0,0.874-0.209,1.18-0.076
			c0.306,0.134,0.342,0.239,0.685,0.698l23.511,31.875V408.5h5v39.395l23.797,31.349c-0.114-1.146,0.203-2.251,0.203-3.321V408.5h5
			V489.5z"/>
		<path fill="#FFFFFF" d="M125.5,449.614l-24.111-32.104c0.115,1.146,0.111,2.233,0.111,3.264v26.277l24.112,32.191
			c-0.115-1.146-0.112-2.251-0.112-3.321V449.614z"/>
	</g>
	<g>
		<path fill="#FFFFFF" d="M792.773,374.842c-33.786,0-61.175,27.389-61.175,61.175c0,33.785,27.389,61.174,61.175,61.174
			c33.785,0,61.174-27.389,61.174-61.174C853.947,402.23,826.559,374.842,792.773,374.842z M829.5,469.5h-2.271
			c-0.709,0-1.307-0.688-1.738-1.307l-18.99-25.692V469.5h-2.212c-0.708,0-1.581-0.688-2.015-1.307L782.5,441.823V469.5h-4v-33.172
			l-19.051-25.311c0.094,0.926,0.051,1.804,0.051,2.637V469.5h-4v-66h2.862c0.433,0,0.731-0.048,0.979,0.059
			c0.245,0.108,0.304,0.254,0.582,0.625l18.577,25.184V403.5h2.803c0.432,0,0.707-0.048,0.953,0.059
			c0.246,0.108,0.627,0.254,0.904,0.625l19.34,25.803V403.5h4v32.058l19.027,25.317c-0.092-0.925-0.027-1.818-0.027-2.682V403.5h4
			V469.5z"/>
		<path fill="#FFFFFF" d="M802.5,436.945l-19.781-25.928c0.094,0.926-0.219,1.804-0.219,2.637v21.222l19.781,25.999
			c-0.092-0.925,0.219-1.818,0.219-2.682V436.945z"/>
	</g>
	<g>
		<path d="M214.085,720.183c0.335,0.046,0.638,0.129,0.906,0.252s0.525,0.297,0.772,0.521c0.246,0.224,0.526,0.525,0.839,0.906
			l23.229,29.371c-0.09-0.939-0.157-1.852-0.201-2.736c-0.045-0.883-0.067-1.717-0.067-2.5v-25.881h10.003v48.908h-5.908
			c-0.873,0-1.611-0.135-2.215-0.402c-0.604-0.27-1.187-0.761-1.746-1.478l-23.061-29.137c0.067,0.851,0.123,1.685,0.168,2.501
			c0.045,0.817,0.067,1.584,0.067,2.299v26.217h-10.003v-48.908h5.975C213.335,720.115,213.75,720.139,214.085,720.183z"/>
		<path d="M261.482,720.183c0.335,0.046,0.638,0.129,0.907,0.252c0.268,0.123,0.525,0.297,0.771,0.521
			c0.247,0.224,0.526,0.525,0.839,0.906l23.229,29.371c-0.089-0.939-0.156-1.852-0.201-2.736c-0.045-0.883-0.067-1.717-0.067-2.5
			v-25.881h10.003v48.908h-5.908c-0.873,0-1.611-0.135-2.215-0.402c-0.604-0.27-1.187-0.761-1.746-1.478l-23.061-29.137
			c0.067,0.851,0.123,1.685,0.168,2.501c0.044,0.817,0.067,1.584,0.067,2.299v26.217h-10.003v-48.908h5.975
			C260.732,720.115,261.146,720.139,261.482,720.183z"/>
		<path d="M308.124,721.139c0.28,0.146,0.599,0.443,0.957,0.891l27.861,36.252c-0.067-0.581-0.112-1.146-0.134-1.694
			c-0.023-0.548-0.034-1.079-0.034-1.595v-34.07h5.707v48.102h-3.29c-0.515,0-0.946-0.09-1.292-0.269
			c-0.348-0.179-0.688-0.481-1.024-0.906l-27.828-36.22c0.044,0.56,0.078,1.107,0.101,1.646c0.022,0.536,0.034,1.029,0.034,1.477
			v34.272h-5.707v-48.102h3.356C307.414,720.922,307.844,720.994,308.124,721.139z"/>
		<path d="M374.907,769.023h-2.652c-0.582,0-1.052-0.09-1.41-0.269c-0.358-0.179-0.593-0.56-0.705-1.142l-0.671-3.154
			c-0.896,0.805-1.768,1.527-2.619,2.164c-0.85,0.639-1.746,1.176-2.685,1.611c-0.94,0.437-1.942,0.768-3.004,0.99
			c-1.063,0.224-2.244,0.336-3.542,0.336c-1.321,0-2.557-0.186-3.709-0.555c-1.153-0.371-2.154-0.928-3.005-1.668
			c-0.85-0.741-1.527-1.679-2.03-2.813c-0.503-1.135-0.755-2.477-0.755-4.025c0-1.347,0.369-2.645,1.108-3.891
			c0.738-1.246,1.93-2.352,3.575-3.317s3.798-1.757,6.462-2.375c2.663-0.617,5.919-0.927,9.768-0.927v-2.668
			c0-2.657-0.565-4.666-1.695-6.029c-1.13-1.362-2.803-2.044-5.018-2.044c-1.455,0-2.68,0.185-3.676,0.554
			c-0.996,0.369-1.858,0.783-2.584,1.242c-0.728,0.459-1.354,0.873-1.88,1.242c-0.526,0.369-1.046,0.554-1.561,0.554
			c-0.403,0-0.755-0.106-1.058-0.319c-0.302-0.212-0.542-0.475-0.722-0.789l-1.074-1.912c1.879-1.813,3.904-3.167,6.075-4.063
			c2.17-0.895,4.577-1.343,7.217-1.343c1.902,0,3.592,0.313,5.069,0.94s2.719,1.499,3.726,2.618s1.768,2.473,2.282,4.062
			s0.772,3.334,0.772,5.236V769.023z M359.398,765.365c1.051,0,2.014-0.106,2.887-0.319c0.873-0.212,1.695-0.515,2.467-0.906
			c0.772-0.392,1.51-0.867,2.215-1.427c0.705-0.559,1.393-1.197,2.064-1.913v-7.017c-2.752,0-5.091,0.176-7.016,0.523
			c-1.925,0.35-3.491,0.807-4.7,1.367c-1.208,0.564-2.086,1.228-2.635,1.993s-0.823,1.62-0.823,2.565c0,0.9,0.146,1.678,0.437,2.33
			c0.291,0.652,0.683,1.188,1.175,1.604s1.074,0.721,1.746,0.912S358.614,765.365,359.398,765.365z"/>
		<path d="M375.242,735.02h4.901c0.47,0,0.861,0.123,1.175,0.369s0.538,0.537,0.671,0.873l8.627,21.886
			c0.313,0.806,0.559,1.611,0.739,2.417c0.178,0.806,0.346,1.6,0.503,2.383c0.179-0.783,0.369-1.577,0.571-2.383
			c0.201-0.806,0.458-1.611,0.772-2.417l8.727-21.886c0.135-0.357,0.353-0.654,0.655-0.89c0.302-0.235,0.676-0.353,1.125-0.353
			h4.666l-13.863,34.004h-5.404L375.242,735.02z"/>
		<path d="M418.544,724.346c0,0.582-0.118,1.124-0.353,1.627c-0.235,0.504-0.549,0.952-0.94,1.344
			c-0.392,0.392-0.845,0.699-1.359,0.922c-0.515,0.225-1.063,0.336-1.646,0.336c-0.582,0-1.125-0.111-1.628-0.336
			c-0.503-0.223-0.952-0.53-1.342-0.922c-0.392-0.392-0.7-0.84-0.923-1.344c-0.224-0.503-0.336-1.045-0.336-1.627
			s0.112-1.137,0.336-1.662c0.223-0.525,0.531-0.984,0.923-1.377c0.391-0.391,0.839-0.699,1.342-0.923s1.046-0.335,1.628-0.335
			c0.582,0,1.13,0.111,1.646,0.335c0.515,0.224,0.967,0.532,1.359,0.923c0.391,0.393,0.705,0.852,0.94,1.377
			S418.544,723.764,418.544,724.346z M417.201,735.02v34.004h-5.975V735.02H417.201z"/>
		<path d="M435.832,734.449c1.477,0,2.858,0.162,4.145,0.486c1.287,0.324,2.456,0.801,3.509,1.427h9.23v2.216
			c0,0.738-0.47,1.208-1.41,1.409l-3.859,0.537c0.76,1.455,1.141,3.077,1.141,4.867c0,1.657-0.318,3.161-0.957,4.515
			c-0.638,1.354-1.521,2.513-2.651,3.475c-1.13,0.963-2.474,1.701-4.027,2.216c-1.557,0.515-3.263,0.772-5.119,0.772
			c-1.59,0-3.089-0.19-4.499-0.571c-0.716,0.462-1.258,0.96-1.628,1.492c-0.368,0.532-0.554,1.054-0.554,1.562
			c0,0.834,0.324,1.464,0.974,1.892c0.648,0.428,1.511,0.735,2.584,0.92c1.075,0.186,2.294,0.277,3.66,0.277
			c1.364,0,2.757,0,4.179,0c1.421,0,2.813,0.126,4.18,0.374c1.363,0.25,2.584,0.656,3.658,1.223s1.935,1.35,2.584,2.346
			s0.974,2.288,0.974,3.873c0,1.473-0.363,2.9-1.091,4.281c-0.728,1.382-1.773,2.611-3.138,3.688
			c-1.366,1.076-3.033,1.937-5.002,2.583c-1.97,0.646-4.196,0.968-6.68,0.968c-2.484,0-4.66-0.246-6.529-0.738
			c-1.868-0.494-3.418-1.154-4.649-1.982c-1.231-0.83-2.153-1.787-2.769-2.874s-0.923-2.224-0.923-3.411
			c0-1.68,0.532-3.107,1.595-4.283c1.063-1.176,2.523-2.112,4.381-2.807c-0.963-0.446-1.729-1.044-2.299-1.792
			c-0.571-0.749-0.856-1.749-0.856-3.001c0-0.49,0.089-0.998,0.269-1.524c0.178-0.524,0.453-1.044,0.822-1.558
			c0.369-0.514,0.822-1.006,1.359-1.476c0.537-0.469,1.163-0.882,1.88-1.239c-1.679-0.939-2.994-2.188-3.944-3.743
			c-0.951-1.556-1.427-3.374-1.427-5.455c0-1.655,0.319-3.16,0.957-4.515c0.638-1.354,1.527-2.506,2.668-3.457
			c1.142-0.951,2.502-1.684,4.078-2.199C432.223,734.707,433.951,734.449,435.832,734.449z M446.439,770.749
			c0-0.867-0.235-1.563-0.705-2.088s-1.108-0.931-1.914-1.216c-0.805-0.285-1.734-0.496-2.785-0.633
			c-1.053-0.137-2.16-0.205-3.324-0.205s-2.35,0-3.558,0c-1.209,0-2.362-0.152-3.457-0.454c-1.276,0.605-2.312,1.346-3.105,2.22
			c-0.795,0.873-1.191,1.916-1.191,3.126c0,0.762,0.195,1.474,0.587,2.135s0.99,1.232,1.796,1.715
			c0.806,0.481,1.818,0.862,3.038,1.144c1.22,0.279,2.657,0.42,4.313,0.42c1.611,0,3.055-0.148,4.33-0.445s2.354-0.719,3.239-1.267
			c0.884-0.548,1.562-1.198,2.031-1.951C446.204,772.495,446.439,771.662,446.439,770.749z M435.832,752.408
			c1.208,0,2.276-0.168,3.205-0.504s1.706-0.807,2.333-1.41c0.626-0.604,1.096-1.326,1.41-2.165c0.313-0.839,0.47-1.763,0.47-2.77
			c0-2.081-0.633-3.737-1.896-4.968c-1.265-1.23-3.105-1.847-5.521-1.847c-2.396,0-4.225,0.616-5.488,1.847
			c-1.265,1.23-1.896,2.887-1.896,4.968c0,1.007,0.162,1.931,0.486,2.77c0.323,0.839,0.8,1.562,1.427,2.165
			c0.626,0.604,1.398,1.074,2.316,1.41C433.594,752.24,434.646,752.408,435.832,752.408z"/>
		<path d="M480.307,769.023h-2.651c-0.583,0-1.053-0.09-1.41-0.269c-0.358-0.179-0.593-0.56-0.705-1.142l-0.671-3.154
			c-0.896,0.805-1.769,1.527-2.618,2.164c-0.852,0.639-1.745,1.176-2.686,1.611c-0.94,0.437-1.941,0.768-3.005,0.99
			c-1.063,0.224-2.243,0.336-3.541,0.336c-1.32,0-2.557-0.186-3.709-0.555c-1.153-0.371-2.154-0.928-3.005-1.668
			c-0.851-0.741-1.526-1.679-2.03-2.813c-0.504-1.135-0.756-2.477-0.756-4.025c0-1.347,0.37-2.645,1.108-3.891
			s1.931-2.352,3.575-3.317s3.798-1.757,6.461-2.375c2.664-0.617,5.919-0.927,9.769-0.927v-2.668c0-2.657-0.565-4.666-1.695-6.029
			c-1.13-1.362-2.803-2.044-5.019-2.044c-1.455,0-2.68,0.185-3.676,0.554c-0.995,0.369-1.857,0.783-2.584,1.242
			c-0.728,0.459-1.354,0.873-1.88,1.242c-0.525,0.369-1.047,0.554-1.562,0.554c-0.402,0-0.755-0.106-1.057-0.319
			c-0.303-0.212-0.543-0.475-0.723-0.789l-1.073-1.912c1.88-1.813,3.904-3.167,6.075-4.063c2.171-0.895,4.577-1.343,7.218-1.343
			c1.902,0,3.591,0.313,5.068,0.94c1.477,0.627,2.719,1.499,3.726,2.618s1.768,2.473,2.283,4.062
			c0.515,1.589,0.771,3.334,0.771,5.236V769.023z M464.799,765.365c1.052,0,2.015-0.106,2.887-0.319
			c0.873-0.212,1.695-0.515,2.468-0.906c0.771-0.392,1.51-0.867,2.216-1.427c0.704-0.559,1.392-1.197,2.063-1.913v-7.017
			c-2.752,0-5.091,0.176-7.016,0.523c-1.925,0.35-3.491,0.807-4.699,1.367c-1.209,0.564-2.087,1.228-2.636,1.993
			c-0.548,0.766-0.822,1.62-0.822,2.565c0,0.9,0.146,1.678,0.437,2.33s0.683,1.188,1.176,1.604c0.491,0.416,1.073,0.721,1.745,0.912
			C463.288,765.27,464.015,765.365,464.799,765.365z"/>
		<path d="M496.318,769.561c-2.686,0-4.75-0.75-6.193-2.249s-2.165-3.659-2.165-6.479v-20.812h-4.095
			c-0.359,0-0.66-0.106-0.906-0.319c-0.247-0.212-0.37-0.542-0.37-0.99v-2.384l5.572-0.704l1.377-10.507
			c0.044-0.336,0.188-0.609,0.436-0.822c0.246-0.213,0.56-0.319,0.94-0.319h3.021v11.716h9.735v4.33h-9.735v20.408
			c0,1.434,0.348,2.496,1.041,3.189s1.589,1.041,2.686,1.041c0.626,0,1.169-0.084,1.628-0.252c0.458-0.168,0.855-0.353,1.192-0.555
			c0.335-0.201,0.62-0.385,0.855-0.554c0.235-0.167,0.441-0.251,0.621-0.251c0.313,0,0.592,0.19,0.839,0.57l1.745,2.854
			c-1.029,0.963-2.271,1.717-3.726,2.266C499.361,769.286,497.862,769.561,496.318,769.561z"/>
		<path d="M515.686,724.346c0,0.582-0.117,1.124-0.352,1.627c-0.235,0.504-0.55,0.952-0.94,1.344
			c-0.393,0.392-0.845,0.699-1.359,0.922c-0.516,0.225-1.063,0.336-1.646,0.336s-1.124-0.111-1.628-0.336
			c-0.504-0.223-0.951-0.53-1.342-0.922c-0.393-0.392-0.7-0.84-0.924-1.344c-0.224-0.503-0.336-1.045-0.336-1.627
			s0.112-1.137,0.336-1.662s0.531-0.984,0.924-1.377c0.391-0.391,0.838-0.699,1.342-0.923s1.046-0.335,1.628-0.335
			s1.13,0.111,1.646,0.335c0.515,0.224,0.967,0.532,1.359,0.923c0.391,0.393,0.705,0.852,0.94,1.377
			C515.568,723.209,515.686,723.764,515.686,724.346z M514.343,735.02v34.004h-5.976V735.02H514.343z"/>
		<path d="M535.289,734.482c2.483,0,4.728,0.414,6.73,1.242s3.704,2.003,5.103,3.524c1.398,1.522,2.472,3.362,3.223,5.522
			c0.749,2.159,1.124,4.57,1.124,7.233c0,2.685-0.375,5.103-1.124,7.251c-0.751,2.148-1.824,3.983-3.223,5.505
			c-1.398,1.522-3.1,2.69-5.103,3.507c-2.003,0.817-4.247,1.226-6.73,1.226c-2.484,0-4.728-0.408-6.73-1.226
			c-2.003-0.816-3.709-1.984-5.119-3.507c-1.409-1.521-2.495-3.356-3.255-5.505c-0.762-2.148-1.143-4.566-1.143-7.251
			c0-2.663,0.381-5.074,1.143-7.233c0.76-2.16,1.846-4,3.255-5.522c1.41-1.521,3.116-2.696,5.119-3.524
			S532.805,734.482,535.289,734.482z M535.289,764.828c3.357,0,5.863-1.125,7.52-3.374c1.655-2.249,2.484-5.388,2.484-9.415
			c0-4.051-0.829-7.207-2.484-9.467c-1.656-2.26-4.162-3.391-7.52-3.391c-1.701,0-3.178,0.291-4.431,0.873s-2.3,1.422-3.139,2.518
			c-0.839,1.097-1.466,2.445-1.88,4.045s-0.621,3.407-0.621,5.422c0,2.014,0.207,3.814,0.621,5.404
			c0.414,1.588,1.041,2.926,1.88,4.011s1.886,1.919,3.139,2.501S533.588,764.828,535.289,764.828z"/>
		<path d="M555.496,769.023V735.02h3.559c0.85,0,1.387,0.414,1.611,1.242l0.47,3.692c1.477-1.634,3.127-2.954,4.952-3.961
			c1.822-1.007,3.933-1.511,6.327-1.511c1.856,0,3.496,0.308,4.917,0.923c1.422,0.616,2.607,1.489,3.559,2.618
			c0.951,1.131,1.673,2.49,2.164,4.078c0.493,1.59,0.739,3.347,0.739,5.271v21.651h-5.975v-21.651c0-2.573-0.587-4.57-1.763-5.991
			c-1.175-1.422-2.971-2.132-5.387-2.132c-1.769,0-3.42,0.426-4.952,1.275c-1.532,0.851-2.948,2.003-4.246,3.458v25.041H555.496z"/>
		<path d="M590.407,769.023v-48.102h15.341c2.953,0,5.5,0.29,7.637,0.872s3.894,1.409,5.27,2.484
			c1.377,1.073,2.395,2.389,3.055,3.944c0.66,1.555,0.991,3.306,0.991,5.253c0,1.187-0.185,2.327-0.555,3.424
			c-0.369,1.097-0.929,2.114-1.679,3.055s-1.689,1.778-2.819,2.518c-1.13,0.738-2.456,1.343-3.978,1.813
			c3.513,0.694,6.164,1.958,7.955,3.794c1.791,1.834,2.686,4.252,2.686,7.25c0,2.036-0.375,3.894-1.124,5.572
			c-0.751,1.678-1.846,3.121-3.29,4.33c-1.443,1.209-3.211,2.143-5.304,2.803c-2.092,0.66-4.48,0.99-7.167,0.99H590.407z
			 M596.92,742.472h8.593c1.835,0,3.424-0.202,4.767-0.604s2.456-0.962,3.341-1.678c0.883-0.717,1.537-1.584,1.963-2.602
			c0.425-1.019,0.638-2.132,0.638-3.34c0-2.82-0.851-4.89-2.551-6.211c-1.701-1.319-4.342-1.98-7.922-1.98h-8.828V742.472z
			 M596.92,747.104v16.75h10.406c1.856,0,3.451-0.212,4.783-0.637c1.331-0.426,2.428-1.024,3.289-1.796
			c0.861-0.772,1.494-1.69,1.896-2.753c0.403-1.063,0.604-2.232,0.604-3.508c0-2.484-0.879-4.447-2.636-5.891
			c-1.756-1.443-4.413-2.166-7.972-2.166H596.92z"/>
		<path d="M654.521,769.023h-2.652c-0.582,0-1.052-0.09-1.41-0.269c-0.357-0.179-0.593-0.56-0.705-1.142l-0.671-3.154
			c-0.895,0.805-1.769,1.527-2.618,2.164c-0.851,0.639-1.745,1.176-2.686,1.611c-0.94,0.437-1.941,0.768-3.004,0.99
			c-1.063,0.224-2.244,0.336-3.542,0.336c-1.32,0-2.557-0.186-3.708-0.555c-1.154-0.371-2.155-0.928-3.005-1.668
			c-0.851-0.741-1.527-1.679-2.031-2.813c-0.503-1.135-0.756-2.477-0.756-4.025c0-1.347,0.37-2.645,1.108-3.891
			s1.931-2.352,3.575-3.317s3.798-1.757,6.461-2.375c2.664-0.617,5.919-0.927,9.77-0.927v-2.668c0-2.657-0.566-4.666-1.696-6.029
			c-1.13-1.362-2.803-2.044-5.018-2.044c-1.455,0-2.68,0.185-3.677,0.554c-0.995,0.369-1.857,0.783-2.584,1.242
			c-0.728,0.459-1.354,0.873-1.88,1.242c-0.525,0.369-1.047,0.554-1.561,0.554c-0.403,0-0.755-0.106-1.058-0.319
			c-0.303-0.212-0.543-0.475-0.722-0.789l-1.074-1.912c1.88-1.813,3.905-3.167,6.075-4.063c2.171-0.895,4.577-1.343,7.218-1.343
			c1.902,0,3.591,0.313,5.068,0.94c1.477,0.627,2.719,1.499,3.726,2.618c1.008,1.119,1.768,2.473,2.283,4.062
			c0.515,1.589,0.772,3.334,0.772,5.236V769.023z M639.012,765.365c1.052,0,2.015-0.106,2.887-0.319
			c0.873-0.212,1.695-0.515,2.468-0.906c0.771-0.392,1.51-0.867,2.216-1.427c0.704-0.559,1.392-1.197,2.064-1.913v-7.017
			c-2.753,0-5.092,0.176-7.017,0.523c-1.925,0.35-3.491,0.807-4.699,1.367c-1.208,0.564-2.087,1.228-2.636,1.993
			c-0.548,0.766-0.822,1.62-0.822,2.565c0,0.9,0.146,1.678,0.437,2.33c0.291,0.652,0.683,1.188,1.176,1.604
			c0.491,0.416,1.073,0.721,1.745,0.912S638.229,765.365,639.012,765.365z"/>
		<path d="M660.226,769.023V735.02h3.424c0.649,0,1.097,0.123,1.344,0.369c0.245,0.246,0.413,0.672,0.503,1.275l0.402,5.304
			c1.164-2.372,2.602-4.224,4.313-5.556c1.712-1.331,3.721-1.997,6.025-1.997c0.94,0,1.79,0.106,2.552,0.319
			c0.76,0.213,1.465,0.509,2.114,0.89l-0.772,4.464c-0.156,0.561-0.502,0.84-1.039,0.84c-0.314,0-0.796-0.106-1.443-0.319
			c-0.65-0.212-1.557-0.319-2.72-0.319c-2.081,0-3.821,0.605-5.22,1.813c-1.399,1.209-2.568,2.967-3.508,5.271v21.651H660.226z"/>
	</g>
	<g>
		<path d="M722.805,803.791c0.102,0.014,0.193,0.039,0.275,0.076s0.16,0.091,0.234,0.158c0.074,0.068,0.16,0.16,0.256,0.275
			l7.064,8.934c-0.027-0.285-0.047-0.563-0.061-0.832c-0.014-0.268-0.021-0.522-0.021-0.76v-7.872h3.043v14.876h-1.797
			c-0.266,0-0.488-0.041-0.674-0.123c-0.184-0.082-0.361-0.231-0.531-0.449l-7.014-8.861c0.021,0.258,0.039,0.512,0.051,0.76
			c0.016,0.248,0.021,0.48,0.021,0.699v7.975h-3.043v-14.876h1.816C722.576,803.771,722.701,803.777,722.805,803.791z"/>
		<path d="M737.221,803.791c0.102,0.014,0.193,0.039,0.275,0.076c0.08,0.037,0.16,0.091,0.234,0.158
			c0.074,0.068,0.162,0.16,0.256,0.275l7.064,8.934c-0.027-0.285-0.049-0.563-0.061-0.832c-0.014-0.268-0.021-0.522-0.021-0.76
			v-7.872h3.043v14.876h-1.797c-0.266,0-0.49-0.041-0.674-0.123s-0.361-0.231-0.531-0.449l-7.014-8.861
			c0.021,0.258,0.037,0.512,0.051,0.76s0.021,0.48,0.021,0.699v7.975h-3.043v-14.876h1.818
			C736.992,803.771,737.119,803.777,737.221,803.791z"/>
		<path d="M751.406,804.082c0.086,0.044,0.184,0.135,0.291,0.271l8.475,11.026c-0.021-0.177-0.033-0.35-0.041-0.516
			c-0.006-0.167-0.01-0.328-0.01-0.485v-10.362h1.734v14.631h-1c-0.156,0-0.287-0.027-0.393-0.082s-0.209-0.146-0.313-0.276
			l-8.463-11.016c0.014,0.171,0.023,0.337,0.029,0.501c0.008,0.162,0.01,0.313,0.01,0.448v10.425h-1.732v-14.631h1.018
			C751.189,804.016,751.32,804.039,751.406,804.082z"/>
		<path d="M771.719,818.646h-0.807c-0.178,0-0.32-0.027-0.428-0.082c-0.111-0.055-0.182-0.171-0.215-0.348l-0.205-0.959
			c-0.273,0.244-0.539,0.464-0.797,0.658c-0.258,0.193-0.531,0.357-0.816,0.49s-0.59,0.232-0.914,0.301
			c-0.322,0.068-0.682,0.103-1.076,0.103c-0.402,0-0.779-0.057-1.129-0.169c-0.352-0.113-0.654-0.282-0.914-0.508
			c-0.258-0.226-0.465-0.51-0.617-0.855c-0.152-0.345-0.229-0.752-0.229-1.225c0-0.408,0.109-0.804,0.336-1.183
			c0.225-0.38,0.586-0.715,1.086-1.009c0.504-0.294,1.156-0.534,1.967-0.723c0.809-0.188,1.801-0.281,2.971-0.281v-0.813
			c0-0.807-0.172-1.419-0.516-1.833s-0.854-0.622-1.525-0.622c-0.443,0-0.816,0.057-1.119,0.168
			c-0.301,0.113-0.564,0.238-0.785,0.379c-0.223,0.139-0.414,0.265-0.572,0.377c-0.16,0.113-0.318,0.169-0.477,0.169
			c-0.121,0-0.229-0.032-0.32-0.097c-0.09-0.064-0.164-0.146-0.219-0.24l-0.328-0.582c0.572-0.551,1.189-0.963,1.85-1.235
			s1.391-0.409,2.195-0.409c0.578,0,1.092,0.096,1.541,0.287c0.449,0.189,0.828,0.455,1.133,0.796
			c0.307,0.341,0.539,0.753,0.693,1.235c0.156,0.483,0.236,1.014,0.236,1.592V818.646z M767.002,817.533
			c0.32,0,0.613-0.032,0.879-0.098c0.264-0.064,0.514-0.156,0.748-0.275c0.236-0.119,0.461-0.264,0.676-0.434
			s0.422-0.365,0.627-0.582v-2.134c-0.838,0-1.549,0.053-2.133,0.159c-0.586,0.106-1.063,0.245-1.43,0.416
			c-0.369,0.171-0.635,0.373-0.801,0.605c-0.168,0.233-0.252,0.494-0.252,0.781c0,0.273,0.045,0.51,0.133,0.708
			c0.09,0.198,0.207,0.361,0.357,0.487c0.15,0.127,0.326,0.22,0.531,0.277C766.543,817.504,766.764,817.533,767.002,817.533z"/>
		<path d="M771.82,808.305h1.492c0.141,0,0.262,0.036,0.355,0.111c0.096,0.074,0.162,0.163,0.205,0.266l2.623,6.656
			c0.096,0.245,0.17,0.49,0.225,0.734c0.055,0.246,0.105,0.487,0.154,0.727c0.055-0.239,0.111-0.48,0.172-0.727
			c0.063-0.244,0.141-0.489,0.234-0.734l2.656-6.656c0.041-0.109,0.107-0.199,0.197-0.27c0.094-0.072,0.207-0.107,0.344-0.107h1.418
			l-4.217,10.342h-1.643L771.82,808.305z"/>
		<path d="M784.99,805.057c0,0.178-0.035,0.343-0.105,0.496c-0.072,0.152-0.166,0.289-0.287,0.408
			c-0.119,0.118-0.258,0.213-0.414,0.28c-0.154,0.068-0.322,0.103-0.5,0.103s-0.342-0.034-0.494-0.103
			c-0.152-0.067-0.291-0.162-0.41-0.28c-0.117-0.119-0.211-0.256-0.279-0.408c-0.068-0.153-0.102-0.318-0.102-0.496
			c0-0.177,0.033-0.345,0.102-0.506c0.068-0.159,0.162-0.298,0.279-0.418c0.119-0.119,0.258-0.213,0.41-0.28
			s0.316-0.103,0.494-0.103s0.346,0.035,0.5,0.103c0.156,0.067,0.295,0.161,0.414,0.28c0.121,0.12,0.215,0.259,0.287,0.418
			C784.955,804.712,784.99,804.88,784.99,805.057z M784.582,808.305v10.342h-1.816v-10.342H784.582z"/>
		<path d="M790.25,808.13c0.447,0,0.869,0.05,1.26,0.148c0.393,0.099,0.746,0.243,1.068,0.435h2.807v0.673
			c0,0.226-0.143,0.368-0.43,0.429l-1.174,0.163c0.23,0.442,0.348,0.937,0.348,1.481c0,0.504-0.098,0.961-0.291,1.372
			c-0.195,0.412-0.463,0.765-0.809,1.058c-0.342,0.292-0.75,0.517-1.225,0.674c-0.473,0.156-0.99,0.234-1.555,0.234
			c-0.484,0-0.941-0.058-1.369-0.174c-0.219,0.141-0.383,0.292-0.496,0.454c-0.111,0.161-0.168,0.32-0.168,0.475
			c0,0.254,0.098,0.445,0.297,0.575c0.197,0.131,0.459,0.224,0.785,0.279c0.326,0.058,0.697,0.085,1.113,0.085
			c0.414,0,0.838,0,1.27,0c0.434,0,0.857,0.038,1.273,0.114c0.414,0.076,0.785,0.199,1.111,0.371
			c0.328,0.174,0.588,0.411,0.787,0.715c0.197,0.303,0.295,0.695,0.295,1.178c0,0.447-0.109,0.881-0.332,1.303
			c-0.221,0.42-0.537,0.793-0.953,1.121c-0.416,0.326-0.924,0.588-1.521,0.785s-1.277,0.295-2.031,0.295
			c-0.758,0-1.418-0.076-1.986-0.226s-1.041-0.351-1.414-0.603s-0.654-0.544-0.842-0.875c-0.188-0.33-0.281-0.676-0.281-1.037
			c0-0.511,0.162-0.945,0.484-1.303s0.768-0.643,1.332-0.854c-0.291-0.136-0.525-0.317-0.697-0.545
			c-0.176-0.227-0.264-0.531-0.264-0.912c0-0.149,0.029-0.305,0.084-0.465c0.055-0.159,0.137-0.316,0.25-0.474
			c0.113-0.156,0.25-0.306,0.414-0.448c0.162-0.143,0.352-0.268,0.572-0.377c-0.512-0.285-0.912-0.666-1.201-1.139
			s-0.434-1.025-0.434-1.658c0-0.504,0.096-0.962,0.289-1.374c0.195-0.411,0.467-0.763,0.813-1.052s0.762-0.512,1.24-0.668
			C789.152,808.209,789.676,808.13,790.25,808.13z M793.475,819.17c0-0.264-0.072-0.475-0.213-0.635
			c-0.145-0.159-0.338-0.283-0.584-0.369c-0.244-0.087-0.527-0.15-0.846-0.193c-0.32-0.041-0.656-0.063-1.012-0.063
			c-0.354,0-0.715,0-1.082,0s-0.719-0.045-1.051-0.137c-0.389,0.184-0.703,0.408-0.945,0.674c-0.242,0.267-0.361,0.584-0.361,0.951
			c0,0.232,0.059,0.448,0.178,0.649c0.119,0.202,0.301,0.376,0.547,0.521c0.244,0.146,0.553,0.263,0.924,0.349
			c0.371,0.084,0.809,0.127,1.311,0.127c0.49,0,0.93-0.045,1.318-0.135c0.387-0.092,0.715-0.219,0.984-0.387
			c0.268-0.166,0.475-0.363,0.619-0.592C793.402,819.701,793.475,819.448,793.475,819.17z M790.25,813.593
			c0.367,0,0.691-0.052,0.975-0.154c0.281-0.103,0.52-0.245,0.709-0.429s0.332-0.403,0.428-0.658
			c0.096-0.254,0.143-0.535,0.143-0.842c0-0.634-0.191-1.137-0.576-1.512c-0.383-0.373-0.945-0.561-1.678-0.561
			c-0.73,0-1.287,0.188-1.672,0.561c-0.385,0.375-0.576,0.878-0.576,1.512c0,0.307,0.051,0.588,0.148,0.842
			c0.098,0.255,0.242,0.475,0.434,0.658s0.426,0.326,0.705,0.429S789.889,813.593,790.25,813.593z"/>
		<path d="M803.775,818.646h-0.805c-0.178,0-0.322-0.027-0.432-0.082c-0.107-0.055-0.18-0.171-0.213-0.348l-0.205-0.959
			c-0.271,0.244-0.537,0.464-0.795,0.658c-0.26,0.193-0.531,0.357-0.818,0.49c-0.285,0.133-0.59,0.232-0.914,0.301
			c-0.322,0.068-0.68,0.103-1.074,0.103c-0.404,0-0.779-0.057-1.131-0.169c-0.35-0.113-0.654-0.282-0.912-0.508
			s-0.465-0.51-0.617-0.855c-0.154-0.345-0.23-0.752-0.23-1.225c0-0.408,0.111-0.804,0.336-1.183
			c0.225-0.38,0.588-0.715,1.088-1.009c0.502-0.294,1.154-0.534,1.965-0.723c0.813-0.188,1.801-0.281,2.973-0.281v-0.813
			c0-0.807-0.172-1.419-0.516-1.833s-0.854-0.622-1.525-0.622c-0.443,0-0.816,0.057-1.121,0.168
			c-0.303,0.113-0.564,0.238-0.785,0.379c-0.221,0.139-0.41,0.265-0.57,0.377c-0.16,0.113-0.32,0.169-0.477,0.169
			c-0.121,0-0.229-0.032-0.322-0.097c-0.092-0.064-0.162-0.146-0.219-0.24l-0.326-0.582c0.57-0.551,1.188-0.963,1.848-1.235
			s1.393-0.409,2.195-0.409c0.578,0,1.092,0.096,1.541,0.287c0.451,0.189,0.826,0.455,1.135,0.796
			c0.305,0.341,0.537,0.753,0.693,1.235c0.156,0.483,0.234,1.014,0.234,1.592V818.646z M799.059,817.533
			c0.32,0,0.613-0.032,0.879-0.098c0.264-0.064,0.516-0.156,0.75-0.275s0.459-0.264,0.674-0.434s0.424-0.365,0.629-0.582v-2.134
			c-0.838,0-1.549,0.053-2.135,0.159s-1.063,0.245-1.43,0.416s-0.635,0.373-0.801,0.605c-0.168,0.233-0.252,0.494-0.252,0.781
			c0,0.273,0.045,0.51,0.135,0.708c0.088,0.198,0.207,0.361,0.357,0.487c0.148,0.127,0.326,0.22,0.531,0.277
			C798.6,817.504,798.82,817.533,799.059,817.533z"/>
		<path d="M808.646,818.81c-0.816,0-1.447-0.228-1.885-0.685c-0.438-0.456-0.658-1.113-0.658-1.97v-6.331h-1.246
			c-0.109,0-0.201-0.031-0.275-0.097c-0.074-0.064-0.111-0.165-0.111-0.301v-0.726l1.693-0.214l0.42-3.195
			c0.014-0.103,0.059-0.187,0.131-0.25c0.076-0.065,0.172-0.098,0.287-0.098h0.92v3.563h2.959v1.316h-2.959v6.208
			c0,0.436,0.104,0.759,0.314,0.97s0.486,0.316,0.818,0.316c0.189,0,0.355-0.025,0.496-0.076c0.137-0.052,0.258-0.107,0.361-0.168
			c0.1-0.063,0.188-0.118,0.262-0.168c0.07-0.053,0.133-0.078,0.188-0.078c0.096,0,0.18,0.059,0.256,0.174l0.529,0.868
			c-0.313,0.292-0.689,0.522-1.135,0.688C809.572,818.727,809.115,818.81,808.646,818.81z"/>
		<path d="M814.537,805.057c0,0.178-0.037,0.343-0.107,0.496c-0.072,0.152-0.168,0.289-0.287,0.408
			c-0.119,0.118-0.256,0.213-0.412,0.28c-0.156,0.068-0.324,0.103-0.502,0.103c-0.176,0-0.342-0.034-0.494-0.103
			c-0.152-0.067-0.291-0.162-0.408-0.28c-0.119-0.119-0.213-0.256-0.279-0.408c-0.07-0.153-0.104-0.318-0.104-0.496
			c0-0.177,0.033-0.345,0.104-0.506c0.066-0.159,0.16-0.298,0.279-0.418c0.117-0.119,0.256-0.213,0.408-0.28
			s0.318-0.103,0.494-0.103c0.178,0,0.346,0.035,0.502,0.103s0.293,0.161,0.412,0.28c0.119,0.12,0.215,0.259,0.287,0.418
			C814.5,804.712,814.537,804.88,814.537,805.057z M814.127,808.305v10.342h-1.814v-10.342H814.127z"/>
		<path d="M820.498,808.141c0.756,0,1.438,0.125,2.049,0.377c0.607,0.252,1.125,0.609,1.551,1.072s0.752,1.022,0.98,1.68
			c0.227,0.656,0.342,1.391,0.342,2.2c0,0.817-0.115,1.552-0.342,2.205c-0.229,0.653-0.555,1.212-0.98,1.675
			s-0.943,0.818-1.551,1.066c-0.611,0.248-1.293,0.373-2.049,0.373c-0.754,0-1.438-0.125-2.047-0.373s-1.129-0.604-1.557-1.066
			c-0.43-0.463-0.758-1.021-0.99-1.675c-0.23-0.653-0.348-1.388-0.348-2.205c0-0.81,0.117-1.544,0.348-2.2
			c0.232-0.657,0.561-1.217,0.99-1.68c0.428-0.463,0.947-0.82,1.557-1.072S819.744,808.141,820.498,808.141z M820.498,817.369
			c1.021,0,1.783-0.342,2.287-1.025s0.756-1.639,0.756-2.863c0-1.232-0.252-2.192-0.756-2.881c-0.504-0.686-1.266-1.029-2.287-1.029
			c-0.518,0-0.965,0.088-1.348,0.265c-0.381,0.177-0.699,0.433-0.955,0.765c-0.256,0.334-0.445,0.745-0.57,1.231
			c-0.127,0.487-0.189,1.036-0.189,1.649c0,0.612,0.063,1.16,0.189,1.643c0.125,0.484,0.314,0.891,0.57,1.221
			s0.574,0.584,0.955,0.76C819.533,817.281,819.98,817.369,820.498,817.369z"/>
		<path d="M826.645,818.646v-10.342h1.082c0.26,0,0.422,0.125,0.49,0.377l0.143,1.123c0.449-0.497,0.951-0.898,1.506-1.205
			s1.197-0.459,1.924-0.459c0.564,0,1.064,0.093,1.498,0.279c0.432,0.188,0.791,0.453,1.082,0.798
			c0.289,0.343,0.51,0.757,0.656,1.24c0.152,0.483,0.227,1.017,0.227,1.603v6.586h-1.818v-6.586c0-0.783-0.178-1.39-0.535-1.822
			c-0.359-0.432-0.904-0.648-1.639-0.648c-0.537,0-1.041,0.13-1.508,0.388c-0.465,0.259-0.895,0.609-1.289,1.052v7.617H826.645z"/>
		<path d="M837.262,818.646v-14.631h4.666c0.9,0,1.674,0.088,2.324,0.265c0.648,0.178,1.184,0.43,1.604,0.757
			c0.418,0.326,0.727,0.727,0.928,1.199c0.199,0.473,0.301,1.006,0.301,1.598c0,0.361-0.055,0.708-0.168,1.041
			c-0.111,0.334-0.283,0.644-0.51,0.93c-0.229,0.285-0.514,0.541-0.857,0.766s-0.748,0.408-1.211,0.551
			c1.068,0.211,1.875,0.597,2.42,1.154c0.545,0.559,0.816,1.293,0.816,2.205c0,0.619-0.113,1.184-0.342,1.694s-0.561,0.95-1,1.317
			s-0.977,0.651-1.613,0.853c-0.637,0.2-1.363,0.302-2.18,0.302H837.262z M839.244,810.57h2.613c0.559,0,1.041-0.062,1.449-0.184
			c0.408-0.123,0.748-0.293,1.016-0.511c0.27-0.218,0.469-0.481,0.598-0.792c0.129-0.309,0.193-0.648,0.193-1.016
			c0-0.857-0.26-1.486-0.775-1.889c-0.518-0.4-1.32-0.603-2.41-0.603h-2.684V810.57z M839.244,811.979v5.095h3.164
			c0.566,0,1.051-0.065,1.455-0.194c0.406-0.13,0.738-0.312,1-0.546c0.262-0.235,0.455-0.514,0.576-0.838
			c0.123-0.324,0.184-0.68,0.184-1.066c0-0.756-0.266-1.354-0.799-1.792c-0.537-0.439-1.344-0.658-2.426-0.658H839.244z"/>
		<path d="M856.764,818.646h-0.809c-0.176,0-0.318-0.027-0.428-0.082s-0.18-0.171-0.215-0.348l-0.203-0.959
			c-0.273,0.244-0.539,0.464-0.797,0.658c-0.258,0.193-0.531,0.357-0.816,0.49c-0.287,0.133-0.592,0.232-0.914,0.301
			c-0.324,0.068-0.684,0.103-1.078,0.103c-0.4,0-0.775-0.057-1.127-0.169c-0.352-0.113-0.656-0.282-0.914-0.508
			c-0.26-0.226-0.465-0.51-0.617-0.855c-0.152-0.345-0.23-0.752-0.23-1.225c0-0.408,0.111-0.804,0.338-1.183
			c0.225-0.38,0.586-0.715,1.088-1.009c0.498-0.294,1.154-0.534,1.965-0.723c0.809-0.188,1.799-0.281,2.971-0.281v-0.813
			c0-0.807-0.172-1.419-0.518-1.833c-0.344-0.414-0.852-0.622-1.525-0.622c-0.441,0-0.814,0.057-1.117,0.168
			c-0.303,0.113-0.564,0.238-0.787,0.379c-0.221,0.139-0.412,0.265-0.57,0.377c-0.162,0.113-0.318,0.169-0.477,0.169
			c-0.121,0-0.229-0.032-0.32-0.097s-0.166-0.146-0.221-0.24l-0.326-0.582c0.572-0.551,1.188-0.963,1.848-1.235
			c0.662-0.272,1.393-0.409,2.193-0.409c0.58,0,1.096,0.096,1.545,0.287c0.449,0.189,0.826,0.455,1.133,0.796
			s0.537,0.753,0.693,1.235c0.158,0.483,0.236,1.014,0.236,1.592V818.646z M852.045,817.533c0.32,0,0.613-0.032,0.879-0.098
			c0.266-0.064,0.514-0.156,0.75-0.275s0.459-0.264,0.674-0.434s0.424-0.365,0.629-0.582v-2.134c-0.838,0-1.549,0.053-2.135,0.159
			s-1.063,0.245-1.43,0.416s-0.635,0.373-0.801,0.605c-0.168,0.233-0.25,0.494-0.25,0.781c0,0.273,0.043,0.51,0.131,0.708
			c0.09,0.198,0.209,0.361,0.359,0.487c0.148,0.127,0.328,0.22,0.531,0.277C851.586,817.504,851.807,817.533,852.045,817.533z"/>
		<path d="M858.5,818.646v-10.342h1.039c0.197,0,0.334,0.036,0.41,0.111c0.072,0.074,0.125,0.204,0.15,0.388l0.123,1.613
			c0.355-0.721,0.793-1.284,1.313-1.69c0.521-0.404,1.131-0.607,1.832-0.607c0.287,0,0.545,0.033,0.777,0.098
			c0.23,0.064,0.445,0.154,0.643,0.271l-0.236,1.358c-0.045,0.17-0.15,0.254-0.314,0.254c-0.096,0-0.242-0.031-0.439-0.096
			c-0.197-0.065-0.473-0.098-0.828-0.098c-0.631,0-1.162,0.184-1.586,0.552c-0.426,0.367-0.781,0.901-1.068,1.603v6.586H858.5z"/>
	</g>
	<g>
		<path d="M114.326,668.717c-41.834,0-75.746,33.912-75.746,75.746s33.912,75.746,75.746,75.746
			c41.833,0,75.746-33.912,75.746-75.746S156.16,668.717,114.326,668.717z M159.5,785.5h-2.511c-0.878,0-2.03-0.643-2.564-1.406
			L130.5,752.492V785.5h-1.915c-0.878,0-2.013-0.643-2.547-1.406L101.5,751.652V785.5h-5v-40.65l-23.325-31.34
			c0.114,1.146,0.325,2.234,0.325,3.265V785.5h-5v-81h3.22c0.534,0,0.904-0.209,1.21-0.076c0.305,0.134,0.299,0.239,0.643,0.697
			L96.5,736.23V704.5h3.624c0.534,0,0.874-0.209,1.18-0.076c0.306,0.134,0.342,0.239,0.685,0.697l23.511,31.876V704.5h5v39.395
			l23.797,31.349c-0.114-1.146,0.203-2.251,0.203-3.321V704.5h5V785.5z"/>
		<path d="M125.5,745.613l-24.111-32.104c0.115,1.146,0.111,2.234,0.111,3.265v26.277l24.112,32.191
			c-0.115-1.146-0.112-2.251-0.112-3.321V745.613z"/>
	</g>
	<g>
		<path d="M792.773,670.842c-33.786,0-61.175,27.389-61.175,61.175c0,33.785,27.389,61.174,61.175,61.174
			c33.785,0,61.174-27.389,61.174-61.174C853.947,698.23,826.559,670.842,792.773,670.842z M829.5,765.5h-2.271
			c-0.709,0-1.307-0.688-1.738-1.307l-18.99-25.692V765.5h-2.212c-0.708,0-1.581-0.688-2.015-1.307L782.5,737.822V765.5h-4v-33.172
			l-19.051-25.311c0.094,0.926,0.051,1.804,0.051,2.637V765.5h-4v-66h2.862c0.433,0,0.731-0.048,0.979,0.059
			c0.245,0.108,0.304,0.254,0.582,0.625l18.577,25.184V699.5h2.803c0.432,0,0.707-0.048,0.953,0.059
			c0.246,0.108,0.627,0.254,0.904,0.625l19.34,25.803V699.5h4v32.058l19.027,25.317c-0.092-0.925-0.027-1.818-0.027-2.682V699.5h4
			V765.5z"/>
		<path d="M802.5,732.945l-19.781-25.928c0.094,0.926-0.219,1.804-0.219,2.637v21.223l19.781,25.998
			c-0.092-0.925,0.219-1.818,0.219-2.682V732.945z"/>
	</g>
</g>
</svg>
